<?xml version="1.0" encoding="UTF-8"?>
<svg id="Layer_1" xmlns="http://www.w3.org/2000/svg" version="1.1" viewBox="0 0 260.8 263.5">
  <!-- Generator: Adobe Illustrator 29.1.0, SVG Export Plug-In . SVG Version: 2.1.0 Build 142)  -->
  <defs>
    <style>
      .st0 {
        fill: #a08d32;
      }

      .st0, .st1 {
        fill-rule: evenodd;
      }

      .st1 {
        fill: #93b43d;
      }
    </style>
  </defs>
  <path class="st1" d="M261,190.9c-.4,0-.8,0-1.2.1,0,.1.5.5,1.2,1.1v-1.1h0Z"/>
  <path class="st1" d="M261,204.5c-1.8-1-3.4-1.5-4.5-1.1,0,0,2.9,2.2,3.6,4,0,.2.4.8.9,1.7v-4.6h0Z"/>
  <path class="st1" d="M261,219.5c-3.1-2.6-6.1-4.4-7.9-3.8,0,0,2.4,1.8,3,3.3.2.5,2.3,3.8,4.9,7.4v-6.9Z"/>
  <path class="st1" d="M261,235.8c-3.9-4.1-8.8-8.5-11.2-7.8,0,0,1.9,1.4,2.3,2.6.3.8,5.1,8.1,8.9,11.6v-6.4Z"/>
  <path class="st1" d="M258.6,250.3c0-.2-.5-.6-.9-1.1-2.4-2.8-8.7-9.7-11.1-9,0,0,1.4,1.1,1.7,1.9.3.8,7.7,12.2,9.6,9.4.3-.4.6-.7.7-1v-.2h0Z"/>
  <path class="st1" d="M261,254.9c-.8-.5-1.1-1.2-.7-1.8.3-.4.4-.8.6-1h0c0,0,0,2.8,0,2.8Z"/>
  <path class="st0" d="M261,244.9c-1.6,2-3.2,4-4.8,6-.7.9-.9,1.9-.8,2.9s.6,2,1.5,2.6c.9.7,1.9.9,2.9.8.4,0,.8-.2,1.2-.4v-12h0Z"/>
  <path class="st1" d="M231.4,11.5h-.3c-.8-.2-2.7-.6-3-.2,0,0,.4,0,.5.1.2.1,2.8,1.2,2.8.5v-.3h0Z"/>
  <path class="st1" d="M231,9.9v-.3c0-.8.2-2.7-.3-3v.5c0,.2-.7,2.9,0,2.8h.3Z"/>
  <path class="st1" d="M231.5,14.2s-.2,0-.5-.1c-1.2-.3-4.3-1-4.9-.3,0,0,.6,0,.8.2.3.2,4.5,1.9,4.5.7v-.4h.1Z"/>
  <path class="st1" d="M232,16.9s-.3,0-.6-.2c-1.4-.4-5.1-1.2-5.7-.4,0,0,.7,0,1,.2s5.3,2.2,5.3.9v-.5h0Z"/>
  <path class="st1" d="M232.7,20.2s-.3,0-.7-.2c-1.7-.4-6-1.4-6.7-.5,0,0,.8,0,1.2.3.4.2,6.2,2.6,6.2,1v-.6h0Z"/>
  <path class="st1" d="M233,23.1c0-.1-.4-.1-.9-.2-2.3-.6-7.9-1.9-8.9-.6,0,0,1.1,0,1.6.4.5.3,8.3,3.5,8.3,1.4v-.7h0v-.3Z"/>
  <path class="st1" d="M234,27c0-.2-.6-.2-1.2-.3-3.2-.8-11.1-2.7-12.5-.9,0,0,1.5,0,2.2.5.7.4,11.6,4.9,11.6,1.9v-1.2h-.1Z"/>
  <path class="st1" d="M235.3,33.9c0-.2-.9-.2-1.8-.5-4.6-1.2-16.3-3.9-18.3-1.3,0,0,2.2,0,3.2.7s17,7.2,17,2.8.1-1.2,0-1.5v-.2h-.1Z"/>
  <path class="st1" d="M236.6,40.7c0-.3-1.2-.3-2.4-.6-6.1-1.6-21.4-5.1-24.1-1.7,0,0,2.9,0,4.2,1s22.4,9.5,22.3,3.7c0-.9.1-1.5,0-2v-.3h0Z"/>
  <path class="st1" d="M237.9,47.5c-.1-.4-1.4-.4-2.9-.8-7.6-2-26.5-6.4-29.8-2.1,0,0,3.7.2,5.2,1.2,1.6,1.1,27.8,11.8,27.7,4.6,0-1.1.2-1.9,0-2.5v-.4h-.2Z"/>
  <path class="st1" d="M239.3,55.1c-.2-.5-1.8-.4-3.6-.7-9.2-1.7-32.1-5.4-35.7,0,0,0,4.4,0,6.3,1,1.9,1.2,34,11.7,33.4,3.2,0-1.3,0-2.3-.2-3l-.2-.5Z"/>
  <path class="st1" d="M240.9,66.3c-.2-.5-1.9-.4-3.8-.7-9.7-1.8-34-5.7-37.8,0,0,0,4.6,0,6.7,1.1,2.1,1.2,36,12.4,35.3,3.4-.1-1.4,0-2.4-.2-3.1l-.2-.5v-.2Z"/>
  <path class="st1" d="M242.6,77.5c-.2-.5-2-.4-4-.8-10.2-1.9-35.8-6-39.8,0,0,0,4.9,0,7,1.2,2.2,1.3,37.9,13.1,37.2,3.6-.1-1.4,0-2.6-.3-3.3l-.2-.5v-.2Z"/>
  <path class="st1" d="M244.2,88.8c-.2-.5-2.1-.4-4.2-.8-10.7-2-37.6-6.3-41.8,0,0,0,5.1,0,7.4,1.2,2.3,1.4,39.9,13.8,39.1,3.7-.1-1.5,0-2.7-.3-3.5l-.2-.5h0Z"/>
  <path class="st1" d="M245.8,100c-.2-.6-2.2-.4-4.4-.9-11.3-2.1-39.5-6.6-43.9,0,0,0,5.4,0,7.8,1.3,2.4,1.4,41.8,14.4,41,3.9-.1-1.6,0-2.8-.3-3.7l-.2-.6h0Z"/>
  <path class="st1" d="M247.4,111.2c-.2-.6-2.3-.5-4.6-.9-11.8-2.2-41.3-6.9-45.9,0,0,0,5.6-.2,8.1,1.3s43.8,15.1,42.9,4.1c-.1-1.6,0-3-.3-3.8,0,0-.2-.6-.2-.6Z"/>
  <path class="st1" d="M249,122.9c-.2-.6-2.4-.5-4.8-.9-12.3-2.3-43.1-7.2-48,0,0,0,5.9-.2,8.5,1.4,2.6,1.5,45.7,15.8,44.8,4.3-.1-1.7,0-3.1-.3-4l-.2-.6h0Z"/>
  <path class="st1" d="M250.8,135.5c-.2-.6-2.5-.5-5-1-12.8-2.4-45-7.6-50-.1,0,0,6.1-.2,8.8,1.4,2.7,1.6,47.7,16.5,46.8,4.5-.1-1.8,0-3.2-.3-4.2l-.3-.7h0Z"/>
  <path class="st1" d="M252.3,149.2c-.2-.6-2.3-.5-4.7-.9-12.1-2.3-42.3-7.1-47.1-.1,0,0,5.8-.2,8.3,1.4,2.6,1.5,44.9,15.5,44,4.2-.1-1.7,0-3-.3-3.9l-.2-.6h0Z"/>
  <path class="st1" d="M253.8,163c-.2-.6-2.2-.4-4.4-.9-11.3-2.1-39.7-6.7-44.1-.1,0,0,5.4-.1,7.8,1.3,2.4,1.4,42.1,14.5,41.3,4,0-1.6,0-2.8-.3-3.7l-.2-.6h-.1Z"/>
  <path class="st1" d="M255.2,176.7c-.2-.5-2-.4-4.1-.8-10.6-2-37.1-6.2-41.2,0,0,0,5-.1,7.3,1.2,2.2,1.3,39.3,13.6,38.5,3.7,0-1.5,0-2.7-.3-3.4l-.2-.5v-.2Z"/>
  <path class="st1" d="M256.7,190.5c-.2-.5-1.9-.4-3.8-.8-9.8-1.8-34.4-5.8-38.3,0,0,0,4.7-.1,6.8,1.1,2.1,1.2,36.5,12.6,35.8,3.4,0-1.4,0-2.5-.2-3.2l-.2-.5h0Z"/>
  <path class="st1" d="M257.2,204.4c-.2-.4-1.7-.4-3.5-.7-9.1-1.7-31.8-5.3-35.4,0,0,0,4.3-.1,6.2,1s33.7,11.6,33,3.2c0-1.3,0-2.3-.2-2.9l-.2-.5h.1Z"/>
  <path class="st1" d="M256.5,215.9c-.2-.4-1.5-.3-3-.6-7.7-1.4-27.1-4.5-30.1,0,0,0,3.7-.1,5.3.9,1.6,1,28.7,9.9,28.1,2.7,0-1.1,0-1.9-.2-2.5l-.2-.4h0Z"/>
  <path class="st1" d="M255.8,227.5c0-.3-1.2-.3-2.5-.5-6.4-1.2-22.3-3.8-24.8,0,0,0,3,0,4.4.7,1.4.8,23.7,8.2,23.2,2.2,0-.9,0-1.6-.2-2.1v-.3h-.1Z"/>
  <path class="st1" d="M255.1,239.1c0-.3-1-.2-2-.4-5-.9-17.6-3-19.6,0,0,0,2.4,0,3.5.6s18.6,6.4,18.3,1.8c0-.7,0-1.3,0-1.6v-.3h0Z"/>
  <path class="st1" d="M254.4,250.6c0-.2-.7-.1-1.4-.3-3.7-.7-12.9-2.2-14.3,0,0,0,1.7,0,2.5.4.8.5,13.6,4.7,13.4,1.3v-1.4h-.2Z"/>
  <path class="st1" d="M231.8,11.5s.1,0,.3-.1c.7-.3,2.5-1.2,2.9-.8,0,0-.4,0-.5.2-.1.1-2.5,1.7-2.6,1v-.2h0Z"/>
  <path class="st1" d="M231.9,9.8v-.3c-.2-.8-.8-2.6-.3-3,0,0,0,.4.1.5.1.2,1.3,2.7.6,2.8h-.4Z"/>
  <path class="st1" d="M232.2,14.1l.4-.2c1.1-.6,4-1.9,4.7-1.3,0,0-.6.1-.8.4-.2.2-4,2.8-4.3,1.6v-.4h0Z"/>
  <path class="st1" d="M232.4,16.9s.3-.1.5-.3c1.3-.7,4.7-2.2,5.5-1.5,0,0-.7.2-.9.4-.2.3-4.7,3.3-5,1.9,0-.2-.1-.3,0-.5h-.1Z"/>
  <path class="st1" d="M232.3,20.2s.3-.2.6-.3c1.6-.8,5.6-2.6,6.5-1.8,0,0-.8.2-1.1.5-.3.3-5.6,3.8-5.9,2.3,0-.2-.1-.4-.1-.6h0Z"/>
  <path class="st1" d="M232.6,23.2c0-.1.4-.2.8-.4,2.1-1,7.4-3.5,8.6-2.4,0,0-1.1.3-1.5.7-.4.4-7.4,5.1-7.9,3,0-.3-.2-.6-.1-.7h0v-.2Z"/>
  <path class="st1" d="M234,27c0-.2.6-.3,1.1-.6,2.9-1.4,10.4-4.8,12.1-3.4,0,0-1.5.4-2,.9-.5.6-10.4,7.2-11,4.2,0-.4-.2-.8-.2-1v-.2h0Z"/>
  <path class="st1" d="M235.3,33.8c0-.2.8-.4,1.7-.8,4.3-2.1,15.1-7.1,17.6-4.9,0,0-2.2.5-3,1.4-.8.8-15.2,10.5-16.1,6.2-.1-.6-.3-1.1-.3-1.5v-.3h0Z"/>
  <path class="st1" d="M236.6,40.7c0-.3,1.1-.6,2.2-1.1,5.2-2.6,17.6-8.3,22.2-7v.8c-.9.3-2.3.8-2.9,1.5-1.1,1.1-20,13.8-21.1,8.1-.2-.8-.4-1.5-.4-2v-.3Z"/>
  <path class="st1" d="M237.7,47.5c0-.4,1.3-.7,2.7-1.4,4.6-2.2,13.7-6.4,20.6-8.1v4.8c-6.9,4.6-21.8,13.2-22.8,7.6-.2-1.1-.5-1.8-.5-2.5,0,0,0-.4,0-.4Z"/>
  <path class="st1" d="M238.8,55.1c0-.5,1.6-.7,3.4-1.4,4.3-1.7,11.8-4.6,18.8-6.5v7.4c-9.1,4.6-21.2,9.4-21.9,4-.2-1.3-.5-2.2-.4-3v-.5h0Z"/>
  <path class="st1" d="M241.5,66.2c0-.5,1.7-.7,3.5-1.5,3.7-1.5,9.8-3.8,16-5.7v8.6c-8.9,4.1-18.6,7.3-19.2,2.4-.2-1.3-.5-2.4-.4-3.1v-.7Z"/>
  <path class="st1" d="M242.9,77.5c0-.5,1.8-.8,3.7-1.6,3.5-1.4,8.8-3.5,14.4-5.3v9.4c-8.6,3.8-17.2,6.1-17.8,1.4-.2-1.4-.6-2.5-.4-3.3v-.6h0Z"/>
  <path class="st1" d="M244,88.7c0-.6,1.9-.8,3.9-1.6,3.2-1.3,8-3.2,13.1-4.9v10c-8.3,3.4-16.1,5.2-16.7.6-.2-1.5-.6-2.6-.4-3.5v-.6h.1Z"/>
  <path class="st1" d="M245.5,100c.1-.6,2-.9,4.1-1.7,2.9-1.2,6.9-2.8,11.4-4.4v10.6c-7.8,2.9-14.6,4.1-15.1-.3-.2-1.6-.6-2.8-.5-3.6v-.6h.1Z"/>
  <path class="st1" d="M248.7,111c.1-.6,2.1-.9,4.3-1.8,2.1-.9,4.9-1.9,8-3.1v11.1c-6.4,2-11.5,2.2-12-1.7-.2-1.6-.6-2.9-.5-3.8v-.6h.2Z"/>
  <path class="st1" d="M249.1,122.8c.1-.6,2.2-1,4.5-1.9,2-.8,4.6-1.8,7.4-2.9v11.5c-6.2,1.8-11,1.8-11.5-2.1-.2-1.7-.7-3-.5-4v-.7h.1Z"/>
  <path class="st1" d="M249.8,135.5c.1-.7,2.3-1,4.7-2,1.8-.7,4-1.6,6.5-2.5v11.8c-5.9,1.5-10.3,1.3-10.8-2.5-.2-1.8-.7-3.1-.5-4.1v-.7h.1Z"/>
  <path class="st1" d="M251,149.3c.1-.6,2.2-.9,4.4-1.9,1.6-.6,3.5-1.3,5.6-2.2v11.1c-5.3,1.3-9.2,1-9.6-2.5-.2-1.7-.7-3-.5-3.9v-.7h.1Z"/>
  <path class="st1" d="M251.4,163.2c.1-.6,2-.9,4.2-1.7,1.5-.7,3.3-1.4,5.4-2.2v10.4c-5.1,1.3-8.8,1-9.2-2.2-.2-1.6-.6-2.8-.5-3.7v-.6h0Z"/>
  <path class="st1" d="M252.9,176.9c0-.6,1.9-.8,3.9-1.6,1.2-.5,2.6-1.1,4.2-1.7v9.6c-4.3.9-7.4.6-7.8-2.3-.2-1.5-.6-2.6-.4-3.4v-.6h0Z"/>
  <path class="st1" d="M252.4,190.9c0-.5,1.8-.8,3.6-1.5,1.4-.6,3.1-1.3,5-2v9.1c-4.5,1.2-7.9,1-8.3-1.9-.2-1.4-.5-2.4-.4-3.2v-.5h0Z"/>
  <path class="st1" d="M254.5,204.6c0-.5,1.6-.7,3.3-1.4.9-.4,2-.8,3.2-1.3v8.2c-3.5.7-5.9.3-6.2-2.1-.2-1.3-.5-2.2-.4-2.9v-.5h0Z"/>
  <path class="st1" d="M255.5,216c0-.4,1.4-.6,2.8-1.2.8-.3,1.7-.7,2.7-1v6.9c-2.9.6-5,.2-5.2-1.8,0-1.1-.4-1.9-.3-2.5v-.4Z"/>
  <path class="st1" d="M256.5,227.4c0-.3,1.1-.5,2.3-1,.7-.2,1.4-.5,2.2-.8v5.7c-2.4.5-4.1.2-4.3-1.5,0-.9-.3-1.6-.3-2.1v-.3h.1Z"/>
  <path class="st1" d="M256.6,238.9c0-.3.9-.4,1.8-.8.8-.3,1.6-.6,2.6-1v4.6c-2.3.6-4,.5-4.2-1,0-.7-.3-1.2-.2-1.6v-.3h0Z"/>
  <path class="st1" d="M257.3,250.3c0-.2.7-.3,1.3-.6.7-.2,1.5-.5,2.4-.9v3.4c-1.9.6-3.4.6-3.6-.6,0-.5-.2-.9-.2-1.2v-.2h0Z"/>
  <path class="st0" d="M260.8,252.5c-1.1-41-3.8-81.9-8.6-122.5-4.7-40.7-11.5-81.1-20.7-121.1l-1.6.3h0c4.4,21.6,8.1,43.3,11.1,65,3,21.8,5.4,43.6,7.3,65.5,1.2,14.1,2.1,28.2,2.8,42.3.7,14.1,1.2,28.3,1.5,42.5,0,4.8.2,9.5.2,14v14c0,1.1.5,2.1,1.2,2.8s1.7,1.1,2.8,1.1,2.1-.5,2.8-1.2c.7-.7,1.1-1.7,1.1-2.8h0Z"/>
  <path class="st1" d="M84,81.1s-.1,0-.3,0c-.7.3-2.5,1.2-2.5,1.7,0,0,.3-.2.5-.2s2.9-.8,2.5-1.4c0,0-.1-.2-.2-.2h0Z"/>
  <path class="st1" d="M82.7,80.1s0,0-.2-.3c-.4-.7-1.5-2.3-2.1-2.2,0,0,.3.3.3.4,0,.2,1.3,2.8,1.8,2.2,0,0,.1,0,.2-.2h0Z"/>
  <path class="st1" d="M85.8,83.1s-.2,0-.5.2c-1.2.5-4,1.9-4,2.8,0,0,.5-.4.8-.4s4.7-1.3,4-2.2c-.1,0-.2-.3-.3-.3h0Z"/>
  <path class="st1" d="M87.8,84.9s-.3,0-.5.2c-1.4.6-4.7,2.2-4.7,3.2,0,0,.6-.4.9-.4s5.5-1.6,4.7-2.6c-.1-.2-.2-.3-.3-.4h0Z"/>
  <path class="st1" d="M90.4,87s-.3,0-.6.3c-1.6.7-5.6,2.6-5.5,3.8,0,0,.7-.5,1.1-.5s6.5-1.8,5.5-3.1c-.2-.2-.2-.4-.4-.4h-.1Z"/>
  <path class="st1" d="M92.5,89.1c-.1,0-.4.2-.8.4-2.1,1-7.4,3.5-7.4,5.1,0,0,.9-.6,1.4-.7.6,0,8.7-2.4,7.3-4.1-.2-.3-.3-.5-.5-.6h-.1.1Z"/>
  <path class="st1" d="M95.7,91.6c-.1,0-.6.2-1.2.5-3,1.3-10.3,4.9-10.3,7.1,0,0,1.2-.9,2-1,.8,0,12.2-3.4,10.3-5.7-.3-.3-.4-.7-.7-.8h-.1Z"/>
  <path class="st1" d="M101,96.1c-.2,0-.8.4-1.7.7-4.4,2-15.1,7.1-15.1,10.4,0,0,1.8-1.3,3-1.4,1.2,0,17.8-5,15-8.4-.4-.5-.7-1-1-1.2h-.2Z"/>
  <path class="st1" d="M106.3,100.6c-.3-.2-1.1.5-2.3,1-5.7,2.6-19.9,9.4-19.9,13.7,0,0,2.4-1.7,3.9-1.9,1.5,0,23.4-6.6,19.8-11.1-.5-.7-.9-1.3-1.3-1.6l-.3-.2h.1Z"/>
  <path class="st1" d="M111.6,105.1c-.3-.2-1.4.6-2.8,1.2-7.1,3.2-24.7,11.6-24.6,17,0,0,2.9-2.2,4.8-2.3,1.9,0,29-8.2,24.5-13.7-.7-.8-1.1-1.6-1.6-1.9l-.3-.2h0Z"/>
  <path class="st1" d="M117.4,110.2c-.4-.2-1.6.8-3.2,1.7-8.2,4.4-28.5,15.8-27.9,22.2,0,0,3.3-2.8,5.6-3.1,2.2-.3,33.9-12.1,28.1-18.4-.9-.9-1.4-1.8-2-2.2l-.4-.3h-.2Z"/>
  <path class="st1" d="M125.7,117.9c-.4-.3-1.7.9-3.4,1.8-8.7,4.6-30.1,16.8-29.5,23.5,0,0,3.5-3,5.9-3.3s35.9-12.8,29.7-19.4c-.9-1-1.5-1.9-2.2-2.3l-.5-.3Z"/>
  <path class="st1" d="M133.9,125.7c-.5-.3-1.8.9-3.6,1.9-9.2,4.9-31.7,17.7-31.1,24.8,0,0,3.7-3.1,6.2-3.5,2.5-.3,37.8-13.5,31.3-20.5-1-1-1.6-2-2.3-2.4,0,0-.5-.3-.5-.3Z"/>
  <path class="st1" d="M142.2,133.4c-.5-.3-1.9,1-3.8,2-9.6,5.1-33.3,18.6-32.7,26.1,0,0,3.9-3.3,6.5-3.7s39.7-14.2,32.9-21.5c-1-1.1-1.6-2.1-2.4-2.6l-.5-.3Z"/>
  <path class="st1" d="M150.5,141.2c-.5-.3-2,1-4,2.1-10.1,5.4-35,19.5-34.3,27.3,0,0,4.1-3.5,6.8-3.8,2.8-.4,41.7-14.9,34.5-22.6-1.1-1.1-1.7-2.2-2.5-2.7l-.5-.3Z"/>
  <path class="st1" d="M158.7,148.9c-.5-.3-2.1,1-4.1,2.2-10.6,5.6-36.6,20.4-35.9,28.6,0,0,4.3-3.6,7.2-4s43.6-15.5,36.1-23.6c-1.1-1.2-1.8-2.3-2.6-2.8l-.6-.3h0Z"/>
  <path class="st1" d="M167.3,157c-.6-.3-2.1,1.1-4.3,2.3-11.1,5.9-38.2,21.3-37.5,29.9,0,0,4.5-3.8,7.5-4.2s45.6-16.2,37.7-24.7c-1.2-1.3-1.9-2.4-2.7-2.9l-.6-.3h0Z"/>
  <path class="st1" d="M176.6,165.8c-.6-.3-2.2,1.1-4.5,2.4-11.5,6.1-39.9,22.2-39.1,31.1,0,0,4.7-3.9,7.8-4.4,3.1-.4,47.5-16.9,39.3-25.7-1.2-1.3-2-2.5-2.9-3.1l-.6-.4h0Z"/>
  <path class="st1" d="M186.3,175.6c-.6-.3-2.1,1.1-4.3,2.2-10.9,5.8-37.5,20.9-36.8,29.3,0,0,4.4-3.7,7.3-4.1,3-.4,44.7-15.9,37-24.2-1.2-1.2-1.8-2.4-2.7-2.9l-.6-.3h0Z"/>
  <path class="st1" d="M196.1,185.4c-.5-.3-2,1-4,2.1-10.2,5.4-35.2,19.6-34.5,27.5,0,0,4.1-3.5,6.9-3.9s41.9-14.9,34.7-22.7c-1.1-1.2-1.7-2.3-2.5-2.7l-.5-.3h0Z"/>
  <path class="st1" d="M205.8,195.2c-.5-.3-1.8.9-3.7,1.9-9.5,5.1-32.8,18.3-32.2,25.7,0,0,3.8-3.3,6.4-3.6,2.6-.4,39.1-13.9,32.4-21.2-1-1.1-1.6-2.1-2.3-2.5l-.5-.3h0Z"/>
  <path class="st1" d="M215.5,205c-.5-.3-1.7.9-3.5,1.8-8.8,4.7-30.5,17-30,23.8,0,0,3.6-3,6-3.4,2.4-.3,36.4-13,30.1-19.7-.9-1-1.5-1.9-2.2-2.3l-.5-.3h.1Z"/>
  <path class="st1" d="M224.6,215.6c-.4-.2-1.6.8-3.2,1.7-8.1,4.3-28.2,15.7-27.7,22,0,0,3.3-2.8,5.5-3.1,2.2-.3,33.6-12,27.8-18.2-.9-.9-1.4-1.8-2-2.2,0,0-.4-.2-.4-.2Z"/>
  <path class="st1" d="M231.3,225c-.4-.2-1.3.7-2.7,1.4-6.9,3.7-24,13.4-23.5,18.7,0,0,2.8-2.4,4.7-2.6,1.9-.3,28.6-10.2,23.6-15.5-.7-.8-1.2-1.5-1.7-1.8l-.4-.2h0Z"/>
  <path class="st1" d="M237.9,234.5c-.3-.2-1.1.6-2.2,1.2-5.7,3-19.8,11-19.4,15.5,0,0,2.3-2,3.9-2.2,1.6-.2,23.6-8.4,19.5-12.8-.6-.7-1-1.3-1.4-1.5l-.3-.2h-.1Z"/>
  <path class="st1" d="M244.6,244c-.2-.1-.9.4-1.8.9-4.5,2.4-15.6,8.7-15.3,12.2,0,0,1.8-1.5,3.1-1.7,1.2-.2,18.6-6.6,15.4-10.1-.5-.5-.8-1-1.1-1.2h-.3Z"/>
  <path class="st1" d="M251.3,253.4c-.2,0-.6.3-1.3.7-3.3,1.8-11.4,6.3-11.2,8.9,0,0,1.3-1.1,2.2-1.3.9-.1,13.6-4.8,11.2-7.4-.4-.4-.6-.7-.8-.9h-.2.1Z"/>
  <path class="st1" d="M84.3,80.8s0,0,.1-.3c.3-.7,1.2-2.5,1.8-2.4,0,0-.2.3-.2.5s-.9,2.9-1.4,2.4c0,0-.2,0-.2-.2h-.1Z"/>
  <path class="st1" d="M83.4,79.4s-.1,0-.3-.2c-.7-.4-2.2-1.6-2.1-2.1,0,0,.3.3.4.3.2,0,2.7,1.3,2.2,1.8,0,0-.1,0-.2.2h0Z"/>
  <path class="st1" d="M86.3,82.6s0-.2.2-.5c.5-1.2,2-4,2.8-4,0,0-.4.5-.4.8s-1.4,4.7-2.3,3.9c-.1,0-.3-.2-.3-.3h0Z"/>
  <path class="st1" d="M88.1,84.6s.1-.3.2-.5c.6-1.3,2.3-4.7,3.3-4.6,0,0-.4.6-.5.9,0,.4-1.7,5.5-2.7,4.6-.2,0-.3-.2-.4-.3h0Z"/>
  <path class="st1" d="M90.1,87.3s.1-.3.3-.6c.8-1.6,2.7-5.5,3.9-5.5,0,0-.5.7-.5,1.1s-2,6.5-3.2,5.5c-.2-.2-.4-.2-.4-.4h-.1Z"/>
  <path class="st1" d="M92.2,89.4c0,0,.2-.4.4-.8,1-2.1,3.6-7.3,5.2-7.3,0,0-.7.9-.7,1.4s-2.6,8.6-4.3,7.3c-.2-.2-.5-.3-.6-.5h0Z"/>
  <path class="st1" d="M95.7,91.5c0,0,.3-.6.5-1.2,1.4-3,5.1-10.2,7.3-10.2,0,0-.9,1.2-1,2,0,.8-3.7,12.1-5.9,10.1-.3-.3-.7-.5-.8-.7h-.1Z"/>
  <path class="st1" d="M101,96.1c-.1-.2.4-.8.8-1.7,2-4.3,7.4-15,10.7-14.9,0,0-1.4,1.8-1.5,2.9-.1,1.2-5.3,17.7-8.7,14.8-.5-.4-1-.7-1.2-1v-.2h-.1Z"/>
  <path class="st1" d="M106.3,100.6c-.2-.3.5-1.1,1-2.2,2.7-5.7,9.7-19.7,14.1-19.6,0,0-1.8,2.3-1.9,3.9-.1,1.5-7,23.3-11.5,19.5-.7-.6-1.3-.9-1.5-1.3l-.2-.3h0Z"/>
  <path class="st1" d="M111.4,105.3c-.2-.3.6-1.4,1.3-2.8,3.3-7.1,12.1-24.5,17.5-24.3,0,0-2.2,2.9-2.4,4.8s-8.7,28.9-14.2,24.2c-.8-.7-1.6-1.1-1.9-1.6l-.2-.4h-.1Z"/>
  <path class="st1" d="M117.1,110.5c-.2-.4.8-1.6,1.7-3.2,4.5-8.1,16.4-28.1,22.8-27.5,0,0-2.9,3.3-3.2,5.5-.4,2.2-12.7,33.7-18.9,27.7-.9-.9-1.8-1.4-2.1-2.1l-.2-.4h-.1Z"/>
  <path class="st1" d="M126,117.5c-.2-.5.9-1.7,1.8-3.4,4.8-8.6,17.3-29.8,24.1-29.1,0,0-3,3.5-3.4,5.8-.4,2.4-13.5,35.6-20,29.3-1-.9-1.9-1.5-2.3-2.2l-.3-.5h.1Z"/>
  <path class="st1" d="M134.2,125.4c-.3-.5.9-1.8,1.9-3.6,5.1-9.1,18.3-31.4,25.4-30.6,0,0-3.2,3.7-3.6,6.1-.4,2.5-14.2,37.5-21.1,30.9-1-1-2-1.6-2.4-2.3l-.3-.5h0Z"/>
  <path class="st1" d="M142.1,133.5c-.3-.5,1-1.9,2-3.7,5.3-9.5,19.2-33,26.7-32.2,0,0-3.4,3.8-3.8,6.5-.4,2.6-14.9,39.5-22.1,32.5-1.1-1-2.1-1.7-2.5-2.4l-.3-.5v-.2Z"/>
  <path class="st1" d="M150.3,141.3c-.3-.5,1-1.9,2.1-3.9,5.6-10,20.2-34.6,28-33.8,0,0-3.5,4-4,6.8-.4,2.7-15.7,41.4-23.2,34-1.1-1.1-2.2-1.8-2.6-2.6,0,0-.3-.5-.3-.5Z"/>
  <path class="st1" d="M159.6,148c-.3-.5,1.1-2,2.2-4.1,5.8-10.5,21.1-36.2,29.3-35.4,0,0-3.7,4.2-4.2,7.1s-16.4,43.3-24.3,35.6c-1.2-1.1-2.3-1.8-2.8-2.7l-.3-.6h.1Z"/>
  <path class="st1" d="M167.3,156.9c-.3-.6,1.1-2.1,2.3-4.3,6.1-10.9,22-37.8,30.6-36.9,0,0-3.9,4.4-4.4,7.4s-17.1,45.2-25.4,37.2c-1.2-1.2-2.4-1.9-2.9-2.8l-.3-.6h.1Z"/>
  <path class="st1" d="M175.8,166.5c-.3-.6,1.2-2.2,2.4-4.5,6.4-11.4,23-39.4,31.9-38.5,0,0-4,4.6-4.5,7.7-.5,3.1-17.9,47.2-26.5,38.8-1.3-1.2-2.5-2-3-2.9l-.3-.6Z"/>
  <path class="st1" d="M185.4,176.5c-.3-.6,1.1-2.1,2.3-4.2,6-10.7,21.6-37.1,30-36.3,0,0-3.8,4.3-4.3,7.3-.5,2.9-16.8,44.4-24.9,36.5-1.2-1.2-2.4-1.9-2.8-2.7l-.3-.6Z"/>
  <path class="st1" d="M194.3,187c-.3-.5,1-2,2.2-3.9,5.6-10.1,20.3-34.8,28.2-34,0,0-3.6,4-4,6.8s-15.8,41.6-23.4,34.2c-1.1-1.1-2.2-1.8-2.6-2.6l-.3-.5h0Z"/>
  <path class="st1" d="M204.1,196.9c-.3-.5,1-1.8,2-3.7,5.2-9.4,18.9-32.5,26.3-31.7,0,0-3.3,3.8-3.7,6.4-.4,2.6-14.7,38.9-21.8,32-1.1-1-2.1-1.7-2.5-2.4l-.3-.5h0Z"/>
  <path class="st1" d="M212.4,208c-.3-.5.9-1.7,1.9-3.4,4.9-8.7,17.6-30.2,24.4-29.5,0,0-3.1,3.5-3.5,5.9s-13.7,36.1-20.3,29.7c-1-1-1.9-1.5-2.3-2.2l-.3-.5h0Z"/>
  <path class="st1" d="M222.6,217.5c-.2-.4.8-1.6,1.7-3.2,4.5-8.1,16.2-27.9,22.6-27.2,0,0-2.9,3.2-3.2,5.5-.4,2.2-12.6,33.3-18.7,27.4-.9-.9-1.8-1.4-2.1-2.1l-.2-.4h-.1Z"/>
  <path class="st1" d="M230.6,225.7c-.2-.4.7-1.3,1.5-2.7,3.8-6.9,13.8-23.7,19.2-23.2,0,0-2.4,2.8-2.7,4.6-.3,1.9-10.7,28.4-15.9,23.3-.8-.8-1.5-1.2-1.8-1.8l-.2-.4v.2Z"/>
  <path class="st1" d="M238.4,234c-.2-.3.6-1.1,1.2-2.2,3.2-5.7,11.4-19.6,15.8-19.1,0,0-2,2.3-2.3,3.8-.2,1.6-8.9,23.4-13.1,19.3-.6-.6-1.2-1-1.5-1.4l-.2-.3h.1Z"/>
  <path class="st1" d="M245.7,242.9c-.1-.2.5-.9,1-1.7,2.5-4.5,9-15.4,12.5-15.1,0,0-1.6,1.8-1.8,3s-7,18.5-10.4,15.2c-.5-.5-1-.8-1.2-1.1v-.2h-.1Z"/>
  <path class="st1" d="M253.4,251.4c0-.2.3-.6.7-1.3,1.4-2.4,4.4-7.6,6.9-9.9v3.6c-1.6,3.8-4.8,10.4-6.7,8.6-.4-.4-.7-.6-.9-.8v-.2h0Z"/>
  <path class="st0" d="M257.4,250.9c-26.5-31.3-54.1-61.6-83.2-90.3-29.1-28.8-59.6-56.1-91.7-81.6l-1,1.3h0c16.9,14.2,33.3,28.8,49.2,43.8,16,15.1,31.5,30.6,46.6,46.6,9.7,10.3,19.3,20.7,28.7,31.3,9.4,10.6,18.6,21.3,27.7,32.2,3.1,3.7,6.1,7.3,8.9,10.8,2.9,3.6,5.9,7.2,8.8,10.9.7.8,1.6,1.3,2.6,1.4,1,.1,2-.2,2.9-.9.8-.7,1.3-1.6,1.4-2.6,0-1-.2-2-.9-2.9h0Z"/>
  <path class="st1" d="M12.3,227.5s0,.1-.1.3c-.4.7-1.2,2.5-.9,2.9,0,0,0-.4.2-.5.1-.1,1.8-2.5,1.1-2.6h-.3Z"/>
  <path class="st1" d="M10.7,227.5h-.3c-.7-.2-2.6-.8-3-.4,0,0,.4,0,.5.2.1.1,2.7,1.4,2.8.6v-.3h0Z"/>
  <path class="st1" d="M15,227.9s-.1.2-.2.4c-.6,1.1-2,4-1.4,4.7,0,0,.2-.6.4-.8s2.9-4,1.7-4.2h-.5Z"/>
  <path class="st1" d="M17.7,228.1s-.1.3-.3.5c-.7,1.3-2.3,4.7-1.6,5.5,0,0,.2-.7.4-.9.3-.2,3.3-4.7,2-5-.2,0-.3-.1-.5,0h0Z"/>
  <path class="st1" d="M21.1,228.1s-.2.3-.3.6c-.8,1.6-2.7,5.5-1.9,6.4,0,0,.2-.8.5-1.1s4-5.5,2.4-5.9c-.2,0-.4-.1-.5-.1h-.2Z"/>
  <path class="st1" d="M24,228.4c-.1,0-.2.4-.4.8-1.1,2.1-3.6,7.3-2.6,8.6,0,0,.3-1.1.7-1.4.4-.4,5.3-7.3,3.2-7.8-.3,0-.5-.2-.7-.2h-.2Z"/>
  <path class="st1" d="M28,228.3c-.2,0-.3.6-.6,1.1-1.5,2.9-5,10.3-3.6,12,0,0,.4-1.5,1-2s7.4-10.3,4.4-10.9c-.4,0-.8-.2-1-.2h-.2,0Z"/>
  <path class="st1" d="M35,228.6c-.3,0-.4.8-.9,1.7-2.2,4.3-7.4,15-5.3,17.5,0,0,.6-2.2,1.4-2.9.9-.8,10.8-15,6.5-15.9-.6-.1-1.1-.4-1.5-.3h-.3.1Z"/>
  <path class="st1" d="M41.9,228.8c-.3,0-.6,1.1-1.1,2.2-2.9,5.6-9.7,19.7-7,23.1,0,0,.8-2.8,1.9-3.9,1.1-1,14.2-19.8,8.5-21-.8-.2-1.5-.5-2-.4h-.3,0Z"/>
  <path class="st1" d="M48.9,229c-.4,0-.7,1.3-1.4,2.7-3.6,6.9-12,24.5-8.6,28.6,0,0,.9-3.5,2.3-4.8,1.4-1.3,17.6-24.5,10.6-26-1-.2-1.8-.6-2.4-.5h-.5Z"/>
  <path class="st1" d="M56.6,229.3c-.5,0-.7,1.6-1.5,3.3-3,7-9.4,22.8-9.1,30.8h2.4c.3-.8.7-1.5,1.2-2,1.6-1.6,18.9-30.6,10.5-31.9-1.3-.2-2.2-.5-3-.4h-.5v.2Z"/>
  <path class="st1" d="M67.9,230.2c-.5,0-.8,1.7-1.6,3.5-2.9,6.7-8.6,20.8-9.5,29.8h4.3c3.5-5.1,18.8-31.7,10.5-32.9-1.3-.2-2.4-.6-3.1-.5h-.6Z"/>
  <path class="st1" d="M79.2,231.1c-.5,0-.8,1.8-1.6,3.7-2.8,6.4-8,19.3-9.7,28.7h5.8c5.4-8.8,17.1-30.9,9.3-32-1.4-.2-2.5-.6-3.3-.5h-.6.1Z"/>
  <path class="st1" d="M90.5,232c-.6,0-.9,1.9-1.7,3.9-2.6,6.2-7.5,18.1-9.6,27.6h7.1c6-10.4,15.8-30,8.3-31.1-1.5-.2-2.6-.6-3.5-.5h-.6Z"/>
  <path class="st1" d="M101.8,232.9c-.6,0-.9,2-1.8,4.1-2.6,5.9-7.1,17-9.5,26.5h8.3c6.3-11.3,14.6-29.1,7.3-30.2-1.6-.2-2.7-.7-3.6-.5h-.7Z"/>
  <path class="st1" d="M113.1,233.8c-.6,0-1,2.1-1.9,4.3-2.5,5.7-6.7,16-9.3,25.4h9.3c6.3-11.8,13.5-28.2,6.4-29.2-1.6-.2-2.9-.7-3.8-.6h-.7Z"/>
  <path class="st1" d="M124.8,234.7c-.6,0-1,2.2-2,4.5-2.4,5.5-6.3,15.1-9.1,24.3h10.2c6.3-12,12.5-27.3,5.4-28.3-1.7-.2-3-.7-4-.6h-.7.2Z"/>
  <path class="st1" d="M137.5,235.8c-.7.1-1,2.3-2.1,4.7-2.3,5.3-5.9,14.2-8.8,23h11.1c6.1-12.1,11.4-26.2,4.5-27.2-1.8-.3-3.1-.8-4.1-.6h-.7,0Z"/>
  <path class="st1" d="M151.3,237.4c-.6,0-1,2.2-1.9,4.4-2.2,5-5.6,13.4-8.3,21.7h10.5c5.7-11.4,10.8-24.7,4.3-25.6-1.7-.2-2.9-.7-3.9-.6h-.7Z"/>
  <path class="st1" d="M165,238.9c-.6,0-.9,2-1.8,4.1-2,4.7-5.3,12.6-7.8,20.4h9.8c5.4-10.7,10.1-23.2,4-24.1-1.6-.2-2.8-.7-3.7-.5h-.6,0Z"/>
  <path class="st1" d="M178.7,240.5c-.6,0-.9,1.9-1.7,3.8-1.9,4.4-4.9,11.8-7.3,19.1h9.2c5-10,9.5-21.7,3.8-22.5-1.5-.2-2.6-.6-3.4-.5h-.6Z"/>
  <path class="st1" d="M192.5,242.1c-.5,0-.8,1.7-1.6,3.6-1.8,4.1-4.6,11-6.7,17.8h8.5c4.7-9.3,8.8-20.2,3.5-21-1.4-.2-2.4-.6-3.2-.5h-.5Z"/>
  <path class="st1" d="M206.1,244.7c-.5,0-.7,1.6-1.5,3.3-1.5,3.6-4,9.5-5.9,15.5h8c4.1-8.4,7.5-17.8,2.8-18.4-1.3-.2-2.2-.5-2.9-.4h-.5,0Z"/>
  <path class="st1" d="M217.2,247.9c-.4,0-.6,1.4-1.2,2.8-1.3,3-3.3,7.8-4.9,12.8h6.9c3.4-7,6.1-14.7,2.2-15.3-1.1-.2-1.9-.5-2.5-.4h-.5Z"/>
  <path class="st1" d="M228.4,251.1c-.3,0-.5,1.1-1,2.3-1,2.4-2.6,6.1-3.9,10h5.8c2.7-5.6,4.7-11.6,1.5-12.1-.9-.1-1.6-.4-2.1-.3h-.3Z"/>
  <path class="st1" d="M239.5,254.4c-.3,0-.4.9-.8,1.8-.7,1.7-1.9,4.4-2.9,7.3h4.6c2-4.3,3.3-8.6.9-8.9-.7-.1-1.2-.3-1.6-.2h-.3,0Z"/>
  <path class="st1" d="M250.6,257.6c-.2,0-.3.7-.6,1.3-.5,1.1-1.2,2.8-1.8,4.6h3.5c1.2-2.8,1.9-5.5.3-5.7-.5,0-.9-.2-1.2-.2h-.2Z"/>
  <path class="st1" d="M12.4,227v-.3c-.2-.8-.6-2.7-.2-3,0,0,0,.4.1.5.1.2,1.1,2.8.4,2.8h-.3Z"/>
  <path class="st1" d="M10.8,226.6h-.3c-.8,0-2.7.2-3-.3h.5c.2,0,3-.7,2.8,0v.2h0Z"/>
  <path class="st1" d="M15,227.2s0-.2-.1-.5c-.3-1.2-1-4.3-.3-4.9,0,0,0,.6.2.9.2.3,1.8,4.6.7,4.5h-.5Z"/>
  <path class="st1" d="M17.7,227.7s0-.3-.1-.6c-.3-1.4-1.1-5.1-.3-5.7,0,0,0,.7.2,1s2.1,5.3.8,5.3h-.6Z"/>
  <path class="st1" d="M21,228.5s0-.3-.2-.7c-.4-1.7-1.3-6-.3-6.7,0,0,0,.8.3,1.2.2.4,2.5,6.3.9,6.3h-.7Z"/>
  <path class="st1" d="M23.9,228.9c-.1,0-.1-.4-.2-.9-.5-2.3-1.7-8-.5-8.9,0,0,0,1.1.3,1.6s3.4,8.4,1.2,8.3h-.8Z"/>
  <path class="st1" d="M28,228.3c-.2,0-.2-.6-.3-1.2-.8-3.2-2.4-11.2-.6-12.5,0,0,0,1.5.5,2.2.4.7,4.7,11.7,1.7,11.6h-1.3Z"/>
  <path class="st1" d="M35,228.6c-.2,0-.2-.9-.4-1.8-1.1-4.7-3.6-16.3-.9-18.3,0,0,0,2.2.7,3.2.6,1,6.9,17.1,2.5,17h-1.9Z"/>
  <path class="st1" d="M41.9,228.8c-.3-.1-.3-1.2-.6-2.4-1.5-6.1-4.7-21.5-1.2-24.1,0,0,0,2.9.9,4.2.8,1.3,9.1,22.6,3.3,22.4-.9,0-1.5.1-2,0h-.4Z"/>
  <path class="st1" d="M48.8,229.2c-.4-.1-.4-1.5-.7-3-1.8-7.6-5.8-26.7-1.5-29.9,0,0,0,3.7,1.1,5.2,1,1.6,11.2,28,4,27.8-1.1,0-1.9.1-2.5,0h-.4Z"/>
  <path class="st1" d="M56.5,229.8c-.4-.2-.3-1.8-.6-3.6-1.5-9.2-4.8-32.2.6-35.7,0,0-.2,4.4.9,6.3,1.1,2,11.1,34.3,2.5,33.4-1.3-.1-2.3,0-3-.3l-.5-.2h.1Z"/>
  <path class="st1" d="M67.9,229.7c-.5-.2-.3-1.9-.7-3.8-1.6-9.7-5-34.1.7-37.7,0,0-.2,4.6,1,6.7,1.2,2.1,11.7,36.2,2.7,35.4-1.3-.1-2.4,0-3.1-.3l-.5-.2h0Z"/>
  <path class="st1" d="M79.2,230.8c-.5-.2-.4-2-.7-4-1.7-10.3-5.3-35.9.7-39.8,0,0-.2,4.9,1,7,1.2,2.2,12.3,38.2,2.8,37.3-1.4-.1-2.6,0-3.3-.3l-.5-.2Z"/>
  <path class="st1" d="M90.4,232.2c-.5-.2-.4-2.1-.7-4.2-1.8-10.8-5.6-37.7.7-41.8,0,0-.2,5.1,1.1,7.4,1.3,2.3,13,40.1,3,39.2-1.5-.1-2.7,0-3.5-.3l-.5-.2h-.1Z"/>
  <path class="st1" d="M101.7,233.1c-.6-.2-.4-2.2-.8-4.4-1.9-11.3-5.9-39.6.8-43.9,0,0-.3,5.4,1.1,7.8,1.4,2.4,13.6,42.1,3.1,41.1-1.6-.1-2.8,0-3.7-.3l-.6-.2h0Z"/>
  <path class="st1" d="M113.2,232.5c-.6-.2-.4-2.3-.8-4.6-2-11.8-6.1-41.4.8-45.9,0,0-.3,5.6,1.2,8.1,1.4,2.5,14.3,44.1,3.3,43-1.6-.2-3,0-3.8-.4l-.6-.2h0Z"/>
  <path class="st1" d="M124.8,234.6c-.6-.3-.4-2.4-.8-4.8-2.1-12.4-6.4-43.3.8-48,0,0-.3,5.9,1.2,8.5s14.9,46,3.4,44.9c-1.7-.2-3.1,0-4-.4l-.6-.3h0Z"/>
  <path class="st1" d="M137.3,236.8c-.6-.3-.5-2.5-.9-5-2.1-12.9-6.7-45.1.9-50,0,0-.3,6.1,1.3,8.9,1.6,2.8,15.5,48,3.6,46.8-1.8-.2-3.2,0-4.2-.4,0,0-.7-.3-.7-.3Z"/>
  <path class="st1" d="M151.1,238.6c-.6-.2-.4-2.3-.8-4.7-2-12.1-6.3-42.5.8-47.1,0,0-.3,5.7,1.2,8.3s14.6,45.2,3.4,44.1c-1.7-.2-3,0-3.9-.4l-.6-.3h0Z"/>
  <path class="st1" d="M164.7,241.3c-.6-.2-.4-2.2-.8-4.4-1.9-11.4-5.9-39.8.8-44.1,0,0-.3,5.4,1.1,7.8,1.4,2.4,13.7,42.4,3.1,41.3-1.6-.2-2.8,0-3.7-.4l-.6-.2h0Z"/>
  <path class="st1" d="M178.4,242.9c-.5-.2-.4-2-.7-4.1-1.8-10.6-5.5-37.2.7-41.2,0,0-.2,5,1,7.3,1.3,2.3,12.8,39.5,2.9,38.6-1.5-.1-2.7,0-3.4-.3l-.5-.2h0Z"/>
  <path class="st1" d="M191.9,246.4c-.5-.2-.4-1.9-.7-3.8-1.6-9.9-5.1-34.5.7-38.3,0,0-.2,4.7,1,6.8s11.9,36.7,2.7,35.8c-1.4-.1-2.5,0-3.2-.3l-.5-.2Z"/>
  <path class="st1" d="M205.8,247.4c-.4-.2-.3-1.7-.6-3.5-1.5-9.1-4.7-31.9.6-35.3,0,0-.2,4.3.9,6.3,1.1,1.9,11,33.9,2.5,33.1-1.3-.1-2.3,0-2.9-.3l-.5-.2h0Z"/>
  <path class="st1" d="M217.1,248.8c-.4-.2-.3-1.5-.5-3-1.3-7.8-4-27.1.5-30.1,0,0-.2,3.7.8,5.3.9,1.7,9.3,28.9,2.1,28.2-1.1-.1-1.9,0-2.5-.2,0,0-.4-.2-.4-.2Z"/>
  <path class="st1" d="M228.4,250.4c-.3-.1-.2-1.2-.4-2.5-1.1-6.4-3.3-22.4.4-24.8,0,0,0,3,.6,4.4.8,1.4,7.7,23.8,1.8,23.2-.9,0-1.6,0-2.1-.2h-.3Z"/>
  <path class="st1" d="M239.7,252.8c-.2-.1-.2-1-.3-2-.8-5-2.6-17.7.3-19.6,0,0-.1,2.4.5,3.5s6.1,18.8,1.4,18.3c-.7,0-1.3,0-1.6-.2h-.3Z"/>
  <path class="st1" d="M251,254.7c-.2,0-.1-.7-.3-1.4-.6-3.7-1.9-12.9.2-14.3,0,0,0,1.7.4,2.5s4.4,13.7,1,13.4c-.5,0-.9,0-1.2-.1h-.2.1Z"/>
  <path class="st0" d="M253.8,251.8c-40.2-7.9-80.7-14.3-121.4-18.6-40.7-4.3-81.6-6.6-122.6-6.4v1.6h0c22,.5,43.9,1.6,65.8,3.4,21.9,1.8,43.7,4.3,65.5,7.3,14,1.9,28,4.1,41.9,6.6,13.9,2.4,27.8,5,41.7,7.9,4.7,1,9.3,1.9,13.7,2.9,4.5,1,9.1,2,13.7,3,1.1.2,2.1,0,3-.5.8-.5,1.5-1.4,1.7-2.5s0-2.1-.5-3c-.5-.8-1.4-1.5-2.5-1.7h0Z"/>
  <path class="st1" d="M252.7,261.2c-.1.1.2.7.4,1.4l.2.8h3.4c-.7-2.2-1.7-3.6-2.8-3-.4.3-.8.4-1,.6h-.1v.2Z"/>
  <path class="st1" d="M159.2,263.5c-.6-1.6-.7-2.9-.4-4,0,0,1.8,2.5,3.7,4h-3.4.1Z"/>
  <path class="st1" d="M175.6,263.5c-1.8-2.9-2.7-5.4-2.1-7.2,0,0,2.7,3.8,5,4.7.4.2,1.9,1.1,4,2.5h-6.9Z"/>
  <path class="st1" d="M193.3,263.5c-4.2-5-7.2-9.8-6.3-12.5,0,0,2.5,3.5,4.6,4.3.9.4,6.3,3.9,11.7,8.2h-10.1.1Z"/>
  <path class="st1" d="M208.6,263.5c-4.9-5.3-9.2-11-8.3-14,0,0,2.2,3,3.9,3.7,1,.4,8.3,5.3,13.9,10.3h-9.6,0Z"/>
  <path class="st1" d="M224.4,263.5c-5.3-5.1-11.6-12.1-10.5-15.3,0,0,1.8,2.5,3.2,3,1,.4,11.2,7.2,15.1,12.3h-7.8Z"/>
  <path class="st1" d="M240.1,263.5c-.1-.1-.3-.3-.4-.4-3.8-3.4-13.1-12.2-12-15.5,0,0,1.4,1.9,2.6,2.4s16.5,10.9,12.5,13.4h-2.7Z"/>
  <path class="st1" d="M251.2,258.7c-.2,0-.5-.5-1.1-1-2.8-2.5-9.5-8.9-8.7-11.3,0,0,1,1.4,1.9,1.8.8.3,12,7.9,9.2,9.8-.4.3-.7.6-1,.7h-.3Z"/>
  <path class="st0" d="M251.6,254.7c-5.6,2.9-11.1,5.8-16.7,8.8h16.6c1.2-.6,2.4-1.2,3.6-1.8,1-.5,1.7-1.3,2-2.3.3-1,.3-2-.2-3-.5-1-1.3-1.7-2.3-2s-2-.3-3,.2h0Z"/>
  <path class="st1" d="M256.6,262.8c0,.2.4.4.9.7h3.5v-1.5c-1.9-1.2-3.5-1.7-4-.5-.2.5-.4.8-.4,1.1v.2h0Z"/>
  <path class="st1" d="M253.8,261.8c0,.2-.7,0-1.5,0-3.7-.2-13-1-13.9-3.4,0,0,1.7.5,2.6.2s14.4-1.3,13.3,2c-.2.5-.2.9-.4,1.1v.2h-.1Z"/>
  <path class="st0" d="M251.6,258.4c-.8,1.7-1.5,3.4-2.2,5.1h8.5l.8-1.8c.5-1,.5-2.1,0-3-.3-.9-1-1.8-2-2.2-1-.5-2.1-.5-3-.1-.9.3-1.8,1-2.2,2h0Z"/>
  <path class="st1" d="M260.6,261.6h.4v-2.8c-.7.3-1.1.8-.9,1.5.2.5.2.9.4,1.1v.2h0Z"/>
  <path class="st1" d="M257.8,262.5c0,.2-.6.4-1.2.9h0c0,.1-5.7.1-5.7.1,2.8-2.2,5.9-4,6.6-2.3.2.5.4.8.4,1.1v.2h0Z"/>
  <path class="st0" d="M254,261.2l.6,2.3h6.4v-5.5c-.3-.4-.7-.8-1.2-1.1-.9-.5-1.9-.7-3-.5-1.1.3-1.9.9-2.4,1.8s-.7,1.9-.5,3h0Z"/>
  <path class="st1" d="M261,262.1c-.1.4-.3.9-.4,1.4h-3.4c.8-2.5,1.9-4.4,3.1-3.7.2.2.5.3.7.4v1.8h0Z"/>
  <path class="st0" d="M257.6,262l2,1.5h1.4v-8.4c-.5-.1-1-.2-1.5-.1-1,.1-2,.6-2.6,1.5-.7.9-.9,1.9-.8,2.9s.6,2,1.5,2.6h0Z"/>
  <path class="st1" d="M261,245.3c-1,3.8-1.8,8.5,0,8.8v-8.8Z"/>
  <path class="st1" d="M261,260.3c-.4-1.4-.5-2.5,0-3v3Z"/>
  <path class="st0" d="M260.9,260.3h.1v-7.9h-.3c-1.1,0-2.1.5-2.8,1.2s-1.1,1.7-1.1,2.8.5,2.1,1.2,2.8c.7.7,1.7,1.1,2.8,1.1h0Z"/>
</svg>