<?xml version="1.0" encoding="UTF-8"?>
<svg id="Layer_1" xmlns="http://www.w3.org/2000/svg" version="1.1" viewBox="0 0 200.2 124.6">
  <!-- Generator: Adobe Illustrator 29.0.1, SVG Export Plug-In . SVG Version: 2.1.0 Build 192)  -->
  <defs>
    <style>
      .st0 {
        fill: #79b906;
      }

      .st1 {
        fill: #94890d;
      }

      .st2 {
        fill: #ff9e18;
      }
    </style>
  </defs>
  <path class="st0" d="M162.3,101.6h0s0,0,0-.1c0,0,.3.4.4.4,0,0,0,0,0,0,0,0-.1-.3-.3-.4h-.1ZM161.8,100.6c-.2.1-.5.6-.5.7,0,0-.1.1-.1.1.2,0,.5-.4.7-.6,0,0,0-.1,0-.2ZM161.6,100.3c0,0,0-.1-.1-.2-.2.1-.6.7-.6.8,0,0-.1.2-.1.2.2,0,.6-.5.8-.8ZM161.2,99.5c-.3.1-.7.9-.7,1,0,0-.1.2-.1.2.2,0,.8-.6,1-.9,0,0,0-.2-.1-.2ZM161,99.2s0,0,0,0c0,0,0-.1-.1-.2,0,0,0,0,0,0-.3,0-1,1.2-1,1.3,0,.1-.2.2-.2.2.3,0,1-.8,1.3-1.2,0,0,0,0,0,0ZM160.7,98.5c0-.1-.1-.3-.2-.4-.5,0-1.4,1.7-1.4,1.8,0,.2-.3.3-.3.3.4.1,1.4-1.2,1.8-1.7,0,0,0,0,0,0ZM160,97.3c0-.2-.2-.3-.3-.5-.7,0-2.1,2.4-2.1,2.6,0,.2-.4.5-.4.5.6.2,2.1-1.7,2.7-2.5,0,0,0-.1.1-.2ZM159.2,96.3c0,0,.1-.2.2-.2-.1-.2-.2-.4-.4-.7-.8-.2-2.7,3.2-2.8,3.5,0,.3-.5.7-.5.7.8.2,2.8-2.2,3.5-3.2ZM158.5,95.2c0-.1.2-.2.2-.3-.2-.3-.3-.5-.5-.8-1.1-.2-3.4,4-3.5,4.3-.1.4-.7.8-.7.8,1,.2,3.4-2.8,4.4-4ZM157.6,93.9c.1-.1.2-.2.3-.3-.2-.3-.4-.7-.6-1-1.3-.1-4.3,4.5-4.4,4.8-.2.4-.8.9-.8.9,1.2.4,4.3-3,5.5-4.4ZM156.5,92c.1-.2.3-.3.4-.4-.2-.4-.4-.7-.6-1.1-1.4-.2-4.5,4.7-4.7,5.1-.2.4-.9,1-.9,1,1.3.4,4.6-3.2,5.8-4.7ZM155.3,90.1c.1-.2.3-.3.4-.4-.2-.4-.4-.7-.7-1.1-1.4-.2-4.8,5-4.9,5.4-.2.5-.9,1-.9,1,1.4.4,4.8-3.4,6.2-4.9ZM154.1,88.2c.1-.2.3-.3.4-.4-.2-.4-.5-.8-.7-1.2-1.5,0-5,5.2-5.2,5.7-.2.5-1,1.1-1,1.1,1.4.4,5.1-3.6,6.5-5.2ZM153,86.3c.1-.2.3-.3.4-.4-.3-.4-.5-.8-.8-1.3-.7,0-1.8,1.1-2.8,2.4-.2.7-.7,1.4-1.3,1.7-.3.4-.6.8-.8,1.1v1.5c1.8-1.1,4.2-3.7,5.3-5ZM149.8,86.6c.8-.8,1.5-1.7,2-2.2.1-.2.3-.3.4-.4-.3-.5-.6-.9-.9-1.4-.5,0-1.2.6-1.9,1.3.2.4.4.8.4,1.3v1.1c0,0,0,.1,0,.2ZM149.4,83.8c.5-.5.9-1,1.2-1.4.1-.1.2-.3.3-.4-.3-.5-.6-1-1-1.4-.7.2-1.6,1-2.5,2.1.8,0,1.5.5,1.9,1.1ZM149.6,80c-.2-.3-.4-.6-.5-.8-.2-.2-.3-.5-.5-.7-1.1.4-2.9,2.5-4.2,4.2h2.7c.9-.9,1.6-1.8,2.2-2.4,0-.1.2-.2.3-.3ZM147.8,77.9c0,0,.1-.1.2-.2-.2-.3-.4-.5-.5-.8-.2.3-.5.6-.8.8-1,1-2.2,1.9-3.4,2.6-.3.2-.7.4-1,.5.1,0,.3,0,.4,0-.3.5-.6.9-.8,1.2-.3-.2-.7-.4-1.1-.6-1,.4-2,.7-3.1.9.3.1.6.2.9.3.2,0,.5-.1.7-.1h1.2c.2,0,.3,0,.5,0,.2,0,.3,0,.5,0h1.5c1.7-1.4,3.7-3.6,4.7-4.7ZM162.3,100.9s0,0,0,.1c0,0,0,0,0,0,.2,0,.5-.1.5-.2,0,0,0,0-.1,0,0,0-.4,0-.5.1ZM162.5,101.3s0,0,0,.1h0c0,.2.2.5.3.5,0,0,0,0,0,0,0,0-.1-.5-.2-.5ZM162.1,100.4c0,0,0,.1,0,.2,0,0,0,0,0,0,.2,0,.9-.2.9-.4,0,0-.1,0-.2,0,0,0-.6,0-.8.2ZM162.9,99.7s-.1,0-.2,0c0,0-.6,0-.9.2,0,0,0,.1.1.2.3,0,.9-.2,1-.4ZM162.5,99.1c0,0-.6,0-.9.1,0,0,0,.2.1.3.4,0,1-.3,1-.5,0,0-.1,0-.2,0ZM162.5,98.5c0,0-.8,0-1.3.2,0,.1.1.2.2.4.5-.1,1.3-.4,1.4-.6,0,0-.2,0-.3,0ZM162.9,97.4c-.1,0-1.5,0-2.1.4,0,.2.2.3.2.5.7-.1,2.2-.5,2.2-1,0,0-.3.1-.4.1ZM163.2,95.8c-.2,0-2.4.2-3.1.6.1.2.2.4.3.6,0,0,0,0,0,0,.9-.2,3.2-.8,3.3-1.4,0,0-.4.2-.6.2ZM163.5,94.2c-.2,0-3.4.2-4.1.9.1.3.3.5.4.8,0,0,0,0,.1,0,1.2-.3,4.2-1,4.4-1.9,0,0-.5.2-.8.2ZM163.8,92.5c-.3,0-4.2.3-5.2,1.1.2.3.4.7.5,1,0,0,.1,0,.2,0,1.5-.3,5.3-1.3,5.5-2.3,0,0-.7.3-1,.3ZM163.8,90.4c-.4,0-4.9.7-6,1.7.2.4.4.8.6,1.2,0,0,.2,0,.3,0,1.8-.5,6.2-1.9,6.3-3.2,0,0-.8.4-1.2.4ZM163.2,88.2c-.4,0-5.6.8-6.5,1.9.2.4.4.8.7,1.2.1,0,.3-.1.4-.2,1.9-.6,6.5-2.1,6.7-3.4,0,0-.8.4-1.3.4ZM162.4,86.1c-.4,0-5.7.8-6.8,2,.2.4.5.9.7,1.3.1,0,.2,0,.4-.1,2-.6,6.9-2.2,7-3.6,0,0-.8.5-1.3.4ZM155.5,87.3c2.1-.6,7.2-2.3,7.4-3.8,0,0-.9.5-1.4.5-.4,0-5.8.8-7.1,2,.3.5.5.9.8,1.4,0,0,.2,0,.3,0ZM154.4,85.4c2.2-.6,7.6-2.4,7.8-3.9,0,0-.9.5-1.5.5-.5,0-6.1.8-7.4,2.1.3.5.6.9.9,1.4,0,0,.2,0,.3-.1ZM153.5,83.3c2.3-.7,7.9-2.5,8.1-4.1,0,0-1,.5-1.6.5-.5,0-7.3,1-8,2.6.3.4.5.9.8,1.3.2,0,.4-.2.6-.2ZM151.7,81.6c.1,0,.3-.1.5-.2,2.4-.7,8.3-2.6,8.5-4.3,0,0-1,.6-1.6.5-.5,0-7.1,1-8.2,2.5,0,0,0,0,0,0,.3.5.6.9.9,1.4ZM150.7,79.3c2.5-.7,8.6-2.7,8.8-4.5,0,0-1.1.6-1.7.5-.5,0-7.1,1-8.5,2.5.3.5.7,1.1,1,1.6.1,0,.2,0,.4-.1ZM149.2,77.1c2.3-.7,8.1-2.6,8.3-4.2,0,0-1,.5-1.6.5-.4,0-4.8.6-7,1.7-.2.3-.4.7-.7,1,.2.4.5.7.7,1.1,0,0,.2,0,.2,0ZM153.8,71.4c-.2,0-1.7.2-3.4.6-.3.8-.7,1.6-1.1,2.3,2.5-.8,5.8-2.2,5.9-3.4,0,0-.9.5-1.5.5ZM143.2,66.3c-.5.2-1,.4-1.3.6.3.4.6.8.8,1.2.2-.6.3-1.2.4-1.8ZM143.5,64.6c.1-1.3.2-2.6.2-3.6-.3,0-.6,0-.9,0,0,.4,0,1,.2,1.6-.3,0-.6,0-.9.2,0-.6-.1-1.2-.2-1.6,0,0,0-.1,0-.2,0,0,0,0,0,0,0,0,0,0,0,0,0,0,0,0,0,0-.4,0-.7,0-1,0,0,0,0,.2,0,.3-.3,0-.8.1-1.2.2,0-.2,0-.4,0-.6-.3,0-.5,0-.8,0,0,0,0,.2,0,.3,0-.1-.2-.2-.3-.3-.3,0-.6,0-.9,0,0,0,.2.1.2.2.4.3.7.5.9.7,0,0,0,0,0,0,0,0-.3-.2-.6-.4-.2-.1-.5-.3-.8-.4,0,0,0-.1,0-.2-.1,0-.3,0-.4,0,0,0,0,0-.1,0,0,.3,0,.7.1,1.1,0,.2,0,.3.1.4,0,.1,0,.3.1.4,0,0,0,0,0,0,0-.1-.1-.3-.2-.5-.2-.4-.4-.9-.6-1.2-.1.2-.3.3-.4.5.3.5.7,1.1,1,1.5,0,.2,0,.5,0,.7,0,.2,0,.3,0,.5.1-.1.2-.2.3-.4.4.1.8.3,1.3.4-.3.2-.6.5-.8.8-.3-.1-.6-.2-.8-.2,0,.4,0,.7,0,1.1,0,0,0,0,.1,0,0,0-.1.1-.2.2,0,.3,0,.5,0,.8,0,.4,0,.8,0,1.3.2,0,.5.2.8.3-.1.2-.3.4-.4.6-.2,0-.3,0-.5,0,0,.5,0,1,0,1.5.4.2,1,.4,1.6.6-.3.4-.5.7-.5.8,0,0,0,0,0,0-.4-.1-.8-.2-1.1-.3,0,.6,0,1.1-.1,1.7,0,0,.2,0,.2,0,1,0,2-.2,2.9-.7-.4-.2-.8-.4-1.1-.5.3-.2.6-.5.9-.7.4.1.9.3,1.3.4-.1.2-.3.3-.4.5.1,0,.2-.1.3-.2,0,0,.2-.2.3-.2.3-.2.5-.5.8-.8.3-.4.5-.7.7-1.2-.3.3-.7.6-1,1-.3-.1-.6-.3-.9-.5.3-.3.6-.6.8-.9.5,0,.9,0,1.1-.2,0,0-.4,0-.7-.2.1-.2.3-.3.4-.4-.3-.4-.6-.8-.9-1.2-.3.2-.6.5-.9.8-.2-.1-.4-.2-.6-.3.3-.3.6-.7.9-1,0,0,.2,0,.3,0,.3,0,.5,0,.7-.2,0,0-.6-.1-.8-.3,0,0-.2-.1-.4-.3-.1-.1-.2-.3-.3-.4,0,0-.1,0-.2.2-.3-.1-.6-.3-.9-.5.2-.2.3-.4.5-.5-.2-.2-.4-.5-.6-.7.4.1.7.2,1,.2,0,0,0,0,0,0,0,0,0,0,0,0,.2,0,.4,0,.5-.1,0,0-.2,0-.4-.1,0-.2,0-.3,0-.6.1.2.3.4.4.6.3,0,.7-.2,1.1-.4.1.4.2.7.3.8-.3.1-.6.3-.8.4.2.3.5.7.7,1,.5-.1,1.2-.4,1.9-.6,0-.3,0-.7.1-1ZM138.7,69.9c-.3-.1-.6-.3-.9-.4.2-.1.3-.3.5-.5.3,0,.6.2.9.3-.2.2-.3.4-.4.6ZM138.6,66.8c-.2.2-.4.5-.6.7-.4-.2-.8-.3-1.1-.4.2-.2.5-.4.7-.7.3.1.7.2,1,.3ZM137.4,63.1s0,0,0-.1c0-.4,0-.9,0-1.3.4.1.8.2,1.1.3.1.2.3.4.4.5,0,0,0,0,0,0,0,0,0,0,0,.1.2.7.4,1.3.4,1.3,0,0,0,.1,0,.2-.1-.1-1.1-.7-2-1ZM139.7,63.4c0-.4,0-.7,0-1.1.4-.1.8-.3,1.1-.5,0,.4.1.7.2,1.1-.5.1-.9.3-1.3.5ZM142.1,63.7c.4-.1.7-.3,1-.5,0,.4.2.7.3,1-.4,0-.9.2-1.3.3,0-.3,0-.6,0-.9ZM130.6,108.5c-.2,0-.3.1-.4.1,0,0-.1,0-.1,0,0,0,.3,0,.4,0,0,0,0,0,0-.1ZM130.5,109h0c0,0,0-.1,0-.2-.1,0,0,.5,0,.6,0,0,0,.1,0,.1,0,0,0-.3,0-.5h-.1ZM130.8,107.9c-.2,0-.8.2-.8.2,0,0-.2,0-.2,0,.1.1.7,0,.9,0,0,0,0-.1,0-.2ZM130.8,107.5c0,0,0-.2,0-.2-.2,0-.9.2-1,.3,0,0-.2,0-.2,0,.1.2.8,0,1.1,0ZM129.9,106.9c0,0-.2,0-.2,0,.1.2,1,0,1.3,0,0,0,0-.2,0-.3-.3,0-1.1.3-1.1.3ZM131.1,106.3s0,0,0,0c0,0,0-.2,0-.2,0,0,0,0,0,0-.2-.2-1.5.3-1.6.4,0,0-.3,0-.3,0,.2.3,1.3,0,1.8-.1,0,0,0,0,0,0ZM131.2,105.5c0-.1,0-.3,0-.4-.4-.3-2.1.4-2.2.5-.1,0-.4.1-.4.1.3.4,1.8,0,2.5-.2,0,0,0,0,.1,0ZM131.5,104.2c0-.2,0-.4.1-.6-.5-.5-3.1.6-3.3.7-.2.1-.6.1-.6.1.4.5,2.7,0,3.6-.3,0,0,.1,0,.2,0ZM131.4,102.9c.1,0,.2,0,.3,0,0-.2,0-.5.1-.7-.5-.7-4.1.8-4.4.9-.2.2-.8.2-.8.2.5.7,3.6,0,4.8-.3ZM131.5,101.6c.1,0,.3,0,.4,0,0-.3.1-.6.2-.9-.7-.8-5.1,1-5.4,1.2-.3.2-1,.2-1,.2.7.8,4.4,0,5.9-.4ZM131.7,100.1c.2,0,.3,0,.5,0,0-.4.1-.8.2-1.2-.9-.9-6.1.8-6.5,1-.4.2-1.3.2-1.3.2.7,1.1,5.3.3,7.1,0ZM132,97.9c.2,0,.4,0,.5,0,0-.4.1-.8.2-1.2-1-1-6.5.9-6.9,1.1-.4.2-1.3.2-1.3.2.8,1.1,5.6.3,7.5,0ZM130.2,96h-2.8c-.2,0-.3,0-.5,0-.2,0-.3,0-.5,0h-1.2c-.1,0-.2,0-.4,0,1,.5,3.4.3,5.4,0ZM129.9,82.6c0,0-.2,0-.3,0h.7c-.2,0-.3,0-.5,0ZM125.6,82c.3.3.5.6.8.9.3-.1.6-.2,1-.2,0,0,0-.1,0-.2,0,0,0-.1,0-.3.2,0,.4,0,.7,0-.2,0-.5-.1-.7-.2-.7-.2-1.4-.4-2-.7,0,0,0,0,0,.1-.3,0-.5,0-.5,0,.2.2.5.4.9.5ZM131,108.5s0,0,0,.1c0,0,0,0,0,0,.1,0,.5.2.6.2,0,0,0,0,0,0,0,0-.3-.2-.5-.2ZM130.9,109.1h0c0,.2,0,.4,0,.5,0,0,0,0,0-.1,0,0,.2-.5.1-.5,0,0,0,.1,0,.2ZM131.1,107.9c0,0,0,.1,0,.2,0,0,0,0,0,0,.2.1.8.4.9.3,0,0-.1,0-.2,0,0,0-.5-.4-.7-.4ZM131.2,107.4c0,0,0,.2,0,.2.3.1.9.4,1,.3,0,0-.1,0-.2,0,0,0-.5-.4-.8-.4ZM131.4,106.7c0,0,0,.2,0,.3.4.2.9.4,1.1.3,0,0-.2,0-.2,0,0,0-.5-.3-.8-.5ZM131.5,106.1c0,.1,0,.3,0,.4.5.2,1.3.6,1.5.4,0,0-.2,0-.3-.1,0,0-.7-.5-1.1-.6ZM131.7,105.1c0,.2,0,.3-.1.5.6.3,2,.9,2.4.7,0,0-.3,0-.4-.2,0,0-1.3-.9-1.8-1ZM132,103.6c0,.2,0,.5-.1.7,0,0,0,0,0,0,.9.4,3,1.4,3.5,1,0,0-.4-.1-.6-.3-.1-.1-2-1.4-2.8-1.4ZM132.3,102c0,.3-.1.6-.2.9,0,0,0,0,.1,0,1.1.5,4,1.8,4.6,1.3,0,0-.6-.1-.8-.4-.2-.2-2.8-1.9-3.8-1.9ZM132.6,100.5c0,.4-.1.7-.2,1.1,0,0,.1,0,.2,0,1.4.7,4.9,2.3,5.7,1.6,0,0-.7-.2-1-.4-.2-.2-3.5-2.4-4.7-2.3ZM133,98.8c0,.4-.2.9-.2,1.3,0,0,.2,0,.3,0,1.7.7,6,2.3,6.9,1.4,0,0-.9-.2-1.2-.5-.3-.2-4.3-2.5-5.8-2.4ZM133.3,96.5c0,.4-.2.9-.2,1.3.1,0,.3,0,.4.1,1.8.7,6.4,2.5,7.3,1.5,0,0-.9-.2-1.3-.5-.3-.3-4.8-2.9-6.3-2.5ZM136.7,95c-.5.6-1.2,1-2.1,1h-.3c2.1.8,6.3,2.3,7.3,1.4,0,0-.9-.2-1.3-.5-.2-.2-1.9-1.2-3.6-1.9ZM136.9,94.6c.4.1.9.3,1.3.4l-1.1-1c0,.2-.1.4-.2.6ZM135.2,82.8c0,0,0,.2,0,.3,0,0,0,0,0,0l1.6,1.6c.2-.7.6-1.3,1.3-1.6-.4-.2-.8-.3-1.2-.4-.5,0-1.1.1-1.6.2ZM103.5,83.1c.1,0,.2-.1.4-.2,0,0,0,0,0,0-.3-.2-.6-.4-.6-.4,0,.2,0,.4.2.6ZM104.6,80.7c0,.5.5,1.2,1.3,1.8.2,0,.4,0,.6,0,1,0,1.9.2,2.8.6.2,0,.3.2.5.3,0,0,.2-.1.2-.2-1.7-.9-4-1.7-4.3-1.8-.5,0-1.2-.7-1.2-.7ZM105.9,78.8c0,1.1,2.4,2.8,4.5,4.1.4-.2.8-.3,1.2-.3h1.8c-1.4-1.4-5.8-3-6.2-3.1-.5,0-1.3-.7-1.3-.7ZM108.6,77.8c-.5,0-1.4-.8-1.4-.8-.1,1.6,4.8,4.3,6.8,5.4.1,0,.2.1.3.2h.3c.3-.3.6-.6.9-.9-.4-1.6-6.5-3.8-7-3.9ZM117.2,80c-.6-1.6-6.8-3.9-7.3-4-.6,0-1.4-.8-1.4-.8-.1,1.6,5,4.6,7.1,5.7.2,0,.3.2.5.3.4-.4.8-.8,1.1-1.1ZM119.1,77.5c.1,0,.2.1.4.2,0,0,0,0,.1-.1-1-1.1-1.8-2.3-2.4-3.7-.8-.4-1.5-.7-2.2-1,0-.3,0-.6.2-.8,0,0,0-.1.1-.3.5.4,1,.8,1.5,1.2-.3-.7-.5-1.4-.7-2.2-.2,0-.3-.1-.4-.2,0-.2.1-.5.2-.8-.4-1.9-.6-3.9-.7-5.8-.1,0-.3,0-.4,0,0,0,0,.2,0,.3-.2,1.3-.6,3.6-.6,5.6-.2-.2-.4-.3-.4-.3,0,.3.1.6.4,1,0,.7,0,1.4.2,2-.8-.3-1.3-.5-1.4-.5,0,0,0,0-.1,0,.6-1.9,1.8-6.3,1.2-7.9-.6,0-1.2.1-1.9.2,0,.1,0,.2,0,.4-.2,1.5-.6,4.2-.7,6.5,0,0,0,0,0,0,0,.1,0,.2,0,.4,0,1.1.1,2,.4,2.6-.2,0-.4-.1-.5-.1-.6,0-1.5-.8-1.5-.8,0,0,0-.2.1-.2.3-.4,2.2-6.8,1.4-8.5,0,0,0,0,0,0-.5,0-1.1.1-1.6.2,0,.1,0,.3,0,.5-.4,2.5-1.3,8.6.2,9.5,0,0,0-.9.1-1.4-.1,1.7,5.3,4.7,7.4,5.9.2,0,.3.2.4.3.4-.4.8-.8,1.2-1.2-.6-1.4-4.8-3.1-6.7-3.8,0-.4,0-1,.2-1.3,1.7,1.6,5,3.5,6.7,4.4ZM129,67.2c.2-.2.4-.5.6-.7-.2-.2-.5-.4-.8-.6,0,.4.1.8.2,1.3ZM116.2,82.2c-.2.1-.3.3-.5.4h.4c.2,0,.4,0,.7,0-.2-.2-.4-.4-.6-.5ZM117.8,80.7c-.4.4-.7.7-1.1,1.1,0,.1.2.3.4.6,0,.1.2.3.2.4.3-.2.8-.4,1.2-.4.3,0,.7,0,1,0-.6-.9-1.2-1.6-1.7-1.7ZM119.6,79s0,0,0,0c-.4.4-.8.8-1.2,1.1,0,.1.2.3.3.4.3.5.7,1.1,1.1,1.9.6.2,1.2.7,1.5,1.4l.4.9.4-.9c.1-.3.3-.5.5-.7-.9-1.8-2-3.8-2.9-4.2ZM124.8,82.3c-.2-.5-.4-.9-.7-1.4-.9-.4-1.8-1-2.7-1.6,0,0,0,0,0,0-.4-.3-.8-.6-1.1-1,0,0,0,0-.1.1,0,0,.1.2.2.3.5,1,1.5,2.6,2.5,4.1.5-.4,1.2-.6,1.8-.5,0,0,0,0,.1,0ZM135,68.4c.2.2.4.3.6.3,0,0-.4-.5-.4-.8,0,0,0-.2-.2-.5,0-.2,0-.4,0-.6,0,0-.2,0-.2,0-.1-.3-.3-.6-.4-.9.3,0,.5,0,.7-.1,0-.3,0-.6,0-.9.5.6.9,1.1,1.3,1.1,0,0-.3-.4-.4-.6,0-.1-.4-1.2-.9-2,0-.2,0-.4,0-.7,0,0-.1,0-.2,0,0,0,0,0,0-.1,0,0,.1-.1.2-.2,0,0,0-.2,0-.3,0,0,0,0,0,0,.1-.4.2-.9.2-1.3-.2,0-.4,0-.7.1,0,.5-.2,1.3-.1,1.8-.1.2-.3.3-.4.5-.1.1-.2.2-.3.4.2,0,.3,0,.5,0,.2.4.5.8.7,1.1-.3,0-.8,0-1.2.1-.2-.3-.3-.5-.5-.7-.2.3-.5.5-.7.8,0,0,0,0,0,.1,0,0-.2,0-.3,0-.2.2-.3.4-.5.6-.3.3-.6.6-.8,1,.1.2.3.5.5.8-.2,0-.5.1-.6.2-.1-.1-.2-.3-.3-.4-.3.4-.7.7-1,1.1.2.4.5.9.8,1.4-.1,0-.3,0-.4.1.2.3.4.7.6.9.1,0,.3,0,.5,0,.3.4.5.7.8,1.1,0,0-.1,0-.2,0,.2.2.4.3.6.4.4.2.8.5,1.3.6.2,0,.5.1.7.2.2,0,.4,0,.6-.1,0-.5,0-1.1,0-1.6-.5,0-1.2,0-1.9.2-.1-.3-.2-.6-.4-1,.4,0,.8-.1,1.2-.2.4.3.7.5,1,.5,0,0-.3-.3-.4-.6.2,0,.4,0,.6,0,0-.5,0-1,0-1.5-.3,0-.8,0-1.2,0,0-.2-.2-.4-.3-.7.5,0,.9-.1,1.3-.2,0,0,.1.1.2.2ZM131.9,69.5c-.2-.3-.3-.6-.5-.9.2,0,.5,0,.7,0,.2.2.3.5.5.7-.2,0-.5.1-.7.2ZM132.9,67.2c-.2-.4-.4-.7-.6-1,.3,0,.6,0,1,0,.2.3.4.6.6.9-.3,0-.6.1-.9.2ZM94.1,58.9c.2,0,.4,0,.6-.1-.2-.4-.3-1-.3-1-.2.2-.3.6-.2,1.1ZM96.5,57.5c0-.2,0-.3,0-.3-.1.1-.2.3-.2.6.1-.1.2-.2.3-.3ZM105,64.4c.5,0,1,0,1.5-.2.1-.2.1-.5,0-.9-.5.4-1,.7-1.5,1.1,0,0,0,0,0,0ZM106.8,63.1c0,.2.2.4.2.5,0,.2.1.4.2.5.5,0,1.1-.1,1.6-.2.2-.5,0-1.4-.4-2.4-.5.6-1,1.1-1.6,1.5ZM109.3,63.4c0,.2.1.3.2.5.6,0,1.1-.1,1.7-.2.2-.9-.5-2.6-1.3-4.3-.4.7-.9,1.4-1.4,2,.3.8.6,1.5.8,2ZM128.4,59.2v1.6h0c.2,0,.3,0,.5,0,0,0,0-.2,0-.2.3-.2.5-.4.8-.6,0,.2.2.5.3.6.3,0,.6-.1.9-.2-.5.6-.9,1.2-.8,1.5,0,0,.3-.4.5-.5.1,0,1.1-.7,1.8-1.3.2,0,.4,0,.6-.1,0,0,0-.1,0-.2,0,0,0,0,.1,0,0,0,.1,0,.2.1,0,0,.2,0,.3,0,0,0,0,0,0,0,.4,0,.9,0,1.3,0,0-.2-.2-.4-.3-.6-.5,0-1.3.1-1.8.3-.2-.1-.4-.2-.6-.3-.1,0-.3-.2-.4-.2,0,.2.1.3.2.5-.3.3-.6.6-.9,1,0-.3-.2-.7-.4-1.1.2-.2.4-.4.5-.6-.3-.2-.6-.3-.9-.5,0,0,0,0-.1.1,0,0,0-.2-.1-.2-.2-.1-.4-.2-.7-.4-.3-.2-.6-.3-.9-.5v1.5c.2-.2.4-.4.6-.6,0,.3.2.6.3.9-.2.2-.5.5-.7.8,0-.1,0-.2-.1-.3ZM93.8,67l-.8-.2c0,.2,0,.4-.1.6v3.3s0,0,0,0c0,0,0-.6.2-.8,0-.1.7-1.7,1-2.9,0,0-.1,0-.2,0ZM94.4,67c0,0-.1,0-.2,0-.4,1.8-.8,4.4,0,4.9,0,0,0-.7.2-1,.1-.2,1-2.3,1.2-3.9-.4,0-.8,0-1.2,0ZM95.9,67c-.3,2.1-.6,5.5.3,6.1,0,0,0-.9.2-1.3.1-.3,1-3.1,1.2-5,0,0-.1,0-.2,0-.5,0-1,0-1.4.1ZM98.2,66.8c-.3,2.2-.8,6.1.2,6.8,0,0,0-.9.2-1.3.2-.3,1.3-3.9,1.3-5.8-.5.1-1.1.2-1.7.3ZM100.5,66.3c-.4,2.2-.9,6.8.2,7.5,0,0,0-1,.2-1.4.2-.3,1.6-4.8,1.3-6.6-.5.2-1.1.4-1.7.5ZM104.4,65.2c-.4,0-.8,0-1.2,0-.1,0-.2.1-.4.2,0,0,0,.1,0,.2-.4,2.1-1.1,7.5.1,8.3,0,0,0-1,.2-1.5.2-.4,1.8-5.6,1.3-7.2ZM105.1,74.2s0-1.1.2-1.5c.2-.4,1.9-5.9,1.3-7.6-.6,0-1.1,0-1.7.1,0,0,0,.2,0,.3-.4,2.2-1.2,7.9.1,8.7ZM108.8,64.9c-.5,0-1,0-1.5.1,0,.2,0,.4,0,.7-.4,2.3-1.2,8.2.2,9.1,0,0,0-1.1.2-1.6.3-.4,2.3-7,1.2-8.3ZM94.6,33.7s0-.1,0-.1c0,0-.1.2-.2.4,0,0,0,0,.1,0,0-.2,0-.4,0-.4ZM94.1,33.8h0c0,0,0,0,0,0,0,0,0,0,.1,0,0-.1-.5-.2-.5-.2,0,0,0,0,0,0,0,0,.3.2.4.3ZM95.2,33.6c0,0,0-.2,0-.2-.2,0-.3.6-.3.9,0,0,.1,0,.2.1.1-.2.2-.8.1-.8ZM95.7,33.8c0,0,0-.2,0-.2-.2,0-.4.7-.4,1,0,0,.1,0,.2.1.2-.2.2-.9.2-1ZM96.3,34.1c0,0,0-.2,0-.2-.2,0-.4.9-.5,1.2,0,0,.1.1.2.2.2-.2.2-1.1.2-1.2ZM96.4,35.4c0,0,.1.1.2.2,0,0,0,0,0,0,.3-.1.4-1.5.4-1.6,0-.1,0-.3,0-.3-.3,0-.6,1.2-.7,1.6,0,0,0,0,0,0,0,0,0,0,0,0ZM97,35.9c.1,0,.2.2.4.3.4-.2.5-2.1.5-2.2,0-.2,0-.4,0-.4-.4,0-.8,1.7-.9,2.3,0,0,0,0,0,.1ZM99.4,33.7c0-.2.1-.6.1-.6-.6.1-1.2,2.4-1.4,3.4,0,0,0,.1,0,.2.2.1.3.2.5.4.6-.2.8-3.1.8-3.3ZM99.2,37.5c.2.1.4.3.6.4.8-.2,1.1-4.1,1.1-4.3,0-.3.2-.8.2-.8-.8.2-1.5,3.2-1.8,4.4,0,.1,0,.2,0,.3ZM100.3,38.3c.3.2.5.4.8.5,1.1-.2,1.4-5,1.3-5.4,0-.4.2-1,.2-1-1,.2-1.9,4-2.2,5.5,0,.1,0,.3,0,.4ZM101.6,39.1s0,0,0,0c.4.1.8.2,1.2.3,1-1.2,1.6-5.6,1.6-6,0-.4.4-1.2.4-1.2-1.3.2-2.6,4.6-3.1,6.4,0,.2-.1.3-.1.4ZM105,40.5c.9-1.6,1.4-5.6,1.4-6,0-.5.4-1.3.4-1.3-1.3.2-2.7,4.7-3.2,6.6.5.2,1,.4,1.4.6ZM106.3,41.2c.2.2.5.3.7.5,1-1.7,1.5-6,1.5-6.3,0-.5.4-1.4.4-1.4-1.3.2-2.7,4.5-3.3,6.7.2.1.5.3.7.5ZM108.7,43.4c1.2-1.4,1.9-6.6,1.8-7,0-.5.4-1.4.4-1.4-1.4.2-2.9,4.9-3.5,7.2.5.4.9.8,1.3,1.3ZM110.1,40.7c-.4,1.1-.7,2.2-.9,2.9,0,0,0,.2,0,.3.2.2.3.4.5.6.2.1.5.3.7.4,0,0,.2-.1.3-.2-.3-.4-.5-1-.5-1.5v-2.1c0-.1,0-.3,0-.4ZM112.4,38.5c0-.6.1-1.1.1-1.2,0-.5.4-1.5.4-1.5-.9.1-1.8,2-2.6,4,.4-.7,1.2-1.2,2-1.3ZM114.6,38.2c0-.6.5-1.6.5-1.6-.6,0-1.1.8-1.7,1.9h1.2c0-.1,0-.2,0-.3ZM110.9,45.2c0,0,0,.1,0,.2.5.3.9.6,1.4.8.1,0,.2-.2.4-.4,0,0-.1,0-.2,0-.6,0-1.1-.3-1.5-.6ZM114.3,47.4c.2-.2.5-.5.7-1,0-.1,0-.2,0-.3-.4-.1-1.2-.2-1.9-.3,0,0,0,.2,0,.2,0,.2-.1.3-.2.5.5.3,1,.6,1.5.9ZM115.1,47.9c0-.2,0-.4,0-.5,0,0,0,0,0,0,0,.1,0,.3-.1.4,0,0,.1,0,.2,0ZM93.9,34.8s0,0,0,0c0,0,.4-.2.4-.3,0,0,0,0,0,0,0,0,0,0,0,0-.1,0-.4.3-.4.4ZM93.7,33.7s.3.4.4.4c0,0,0,0-.1,0h0c-.1-.2-.4-.4-.4-.3,0,0,0,0,0,0ZM94.1,35.4s0,0,.1-.1c0,0,.6-.3.7-.5,0,0-.1,0-.2-.1,0,0,0,0,0,0-.2.2-.7.6-.6.7ZM94.5,35.8s0-.1.2-.1c0,0,.5-.3.7-.5l-.2-.2c-.3.2-.7.6-.7.8ZM94.9,36.2s.1-.1.2-.2c0,0,.5-.3.8-.5,0,0-.2-.1-.2-.2-.3.3-.8.7-.7.9ZM96.4,35.9c-.1,0-.2-.2-.3-.3-.4.3-1.1.9-1,1.2,0,0,.1-.2.2-.2,0,0,.7-.4,1.1-.7ZM95.5,37.8c.1,0,1.3-.7,1.7-1.2-.1-.1-.3-.2-.4-.3-.5.4-1.7,1.4-1.6,1.8,0,0,.2-.2.3-.3ZM98.4,37.5c-.2-.1-.4-.3-.6-.4,0,0,0,0,0,0-.4.3-1.1.9-1.6,1.4.4,0,.7,0,1.1,0,.5-.4,1-.8,1.2-1.1ZM99.6,38.4c-.2-.2-.5-.4-.7-.6,0,0,0,0-.1,0-.2.2-.5.4-.8.7.5,0,.9,0,1.4.2.1-.1.2-.2.2-.4ZM99.8,38.8s0,0,0,0c.2,0,.3,0,.5,0-.1,0-.2-.2-.3-.2,0,0-.1,0-.2.1ZM111.2,48c.3-.4.5-.8.5-1.1-.4-.3-.8-.6-1.3-.8.3.6.6,1.3.8,2ZM112.4,47.3c-.1.1-.2.2-.4.4-.2.2-.4.4-.7.6.2.8.4,1.7.4,2.6,1.1-1,2-1.9,2.1-2.6,0,0,0,0,0,0-.5-.3-.9-.6-1.4-.9ZM114.2,48.9c-.6.6-1.5,1.4-2.4,2.3,0,.3,0,.5,0,.8,0,.7,0,1.4-.1,2.1,1.2-.9,2.6-2,3.5-3.1v-1.4c0-.1,0-.3,0-.5-.2-.1-.5-.3-.7-.5,0,0-.2.2-.3.3ZM115.2,51.6c-.8.8-1.8,1.8-2.6,2.7,0-.3-.1-.5-.1-.5-.2.2-.3.6-.3,1-.4.5-.7,1-1,1.4-.1.4-.2.8-.4,1.2-.2.5-.4,1-.7,1.5.5,1.6,1.2,3.3,1.6,4.3,0,.1.1.3.1.4.3,0,.7,0,1-.1.3,0,.6,0,.9-.1.2-1.3-1.3-4.3-2.4-6.3.2-.2.4-.4.7-.5,0,0,.1,0,.2-.1.4,2.2,1.6,5.1,2.2,6.5,0,0,0,.2.1.3.2,0,.3,0,.5,0v-4.2c-.2-.5-.5-.9-.7-1.3.1-.1.3-.2.4-.2,0,0,.2,0,.3-.2v-2.7c0,.3-.1.7,0,1.1-.4.5-.7.9-1,1.4-.3-.5-.6-.9-.7-1.2.5-.4,1.2-.8,1.8-1.3v-2.8ZM134.8,60.3c-.2-.1-.4-.2-.6-.3-.4.4-.9.9-1.2,1.3-.2,0-.4,0-.7.1-.2,0-.3,0-.5,0,.1,0,.3.2.4.3,0,.4-.1.9-.1,1.3-.3-.2-.6-.4-1-.6,0-.3,0-.6,0-.8-.4,0-.7.1-1.1.2,0,0,0,0,0,.2,0,0-.2,0-.2-.1-.2,0-.5,0-.7.1-.2,0-.5,0-.7.1,0,1,0,2.1.2,3.2,0-.1,0-.2,0-.3.4.2.8.5,1.1.7,0,0,0,.2,0,.3,0,.3.2.5.3.6,0,0,0-.6.1-.9,0,0,0-.2.2-.5.1-.1.2-.3.4-.4,0,0-.1,0-.2-.1,0-.3.2-.6.2-1,.2.1.4.2.6.3.2-.2.4-.5.6-.7,0,.8,0,1.5.3,1.6,0,0,0-.5,0-.7,0-.1.4-1.2.6-2.2.1-.2.3-.3.4-.5,0,0-.1,0-.2-.1,0,0,0,0,.1,0,0,0,.2,0,.2,0,0,0,.1-.1.2-.2h-.1c.3-.2.7-.6,1-.9ZM129.9,64.2c-.3-.1-.6-.3-.8-.4,0-.4.1-.8.1-1.2.3.2.5.4.8.5,0,.3,0,.7,0,1ZM120.1,13.7s0,0,0,0c0,0-.3,0-.4.2,0,0,0,0,0,.1.1,0,.3-.2.3-.3ZM119.7,13.4c0-.1-.2-.3-.2-.3,0,0,0,0,0,0,0,0,0,.3.1.4h.1ZM119.7,13.6s0,0,0-.2h0c0,0,0,.1,0,.2ZM120,14.6c.2,0,.6-.5.6-.5,0,0,.1-.1.1-.1-.1,0-.6.3-.8.4,0,0,0,.1,0,.2ZM120.1,15.1c.2,0,.7-.6.8-.6,0,0,.2-.1.2-.1-.2,0-.7.4-1,.5,0,0,0,.2,0,.2ZM120.3,15.8c.3,0,.9-.7.9-.8,0,0,.2-.1.2-.1-.2-.1-.9.4-1.2.7,0,0,0,.2,0,.3ZM120.4,16.1s0,0,0,0c0,0,0,.2,0,.2,0,0,0,0,0,0,.3,0,1.2-.9,1.3-1,0,0,.2-.2.2-.2-.3-.1-1.2.6-1.5.9,0,0,0,0,0,0ZM120.6,16.9c0,.1,0,.3.1.4.5,0,1.7-1.3,1.8-1.4,0-.1.3-.3.3-.3-.4-.2-1.7.8-2.2,1.2,0,0,0,0,0,0ZM120.9,18.2c0,.2.1.4.2.6.6.2,2.6-1.9,2.7-2.1.1-.2.5-.4.5-.4-.6-.3-2.4,1.2-3.2,1.8,0,0-.1,0-.2.1ZM121.3,19.5c0,.2.1.5.2.7.8.4,3.4-2.5,3.5-2.7.2-.3.7-.5.7-.5-.8-.4-3.2,1.5-4.2,2.4,0,0-.2.1-.2.2ZM121.7,20.8c0,.3.2.6.3.9,1,.5,4.2-3.1,4.4-3.4.2-.3.8-.7.8-.7-1-.5-4,1.9-5.2,2.9-.1,0-.2.2-.3.2ZM122.1,22.3c.1.4.2.8.3,1.1,1.2.4,5.2-3.4,5.4-3.7.3-.4,1-.7,1-.7-1.1-.6-4.9,2-6.4,3.1-.1.1-.3.2-.4.3ZM122.7,24.4c.1.4.2.8.4,1.2,1.3.5,5.5-3.6,5.7-3.9.3-.4,1.1-.8,1.1-.8-1.2-.7-5.2,2.1-6.8,3.2-.2.1-.3.2-.4.3ZM123.4,26.6c.1.4.3.8.4,1.2,1.4.5,5.8-3.8,6-4.1.3-.4,1.2-.8,1.2-.8-1.2-.7-5.5,2.2-7.1,3.4-.2.1-.4.2-.5.3ZM124.1,28.7c.1.4.3.9.4,1.3,1.5.4,6.1-4,6.3-4.3.3-.4,1.2-.8,1.2-.8-1.3-.8-5.7,2.3-7.5,3.6-.2.1-.4.2-.5.3ZM124.8,30.8c.2.5.3.9.5,1.4,1.6.3,6.3-4.2,6.6-4.6.3-.5,1.3-.9,1.3-.9-1.3-.8-6,2.4-7.9,3.7-.2.1-.3.2-.5.3ZM125.5,32.9c.2.5.4,1,.5,1.5,1.7.2,6.5-4.4,6.8-4.8.3-.5,1.3-.9,1.3-.9-1.4-.8-6.3,2.5-8.2,3.9-.2.1-.3.2-.5.3ZM119,14.1s.4,0,.5,0c0,0,0,0,0-.1,0,0,0,0,0,0-.2,0-.5,0-.6.1,0,0,0,0,.1,0ZM119.4,13.2s0,.5,0,.5c0,0,0-.1,0-.2h.1c0-.2,0-.4-.2-.4,0,0,0,0,0,.1ZM118.8,14.7s.6.1.8,0c0,0,0-.1,0-.2,0,0,0,0,0,0-.3,0-.9,0-1,.2,0,0,.1,0,.2,0ZM118.7,15.2s.1,0,.2,0c0,0,.6.1.9,0v-.2c-.4,0-1,0-1.1.2ZM118.8,15.8s.2,0,.2,0c0,0,.6.1.9,0,0,0,0-.2,0-.3-.4,0-1,0-1.1.2ZM118.8,16.4c0,0,.8.1,1.3,0,0-.1,0-.3,0-.4-.5,0-1.4,0-1.5.3,0,0,.2,0,.3,0ZM118.2,17.4c.1,0,1.5.3,2.1,0,0-.2,0-.3-.1-.5-.7,0-2.2,0-2.4.4,0,0,.3,0,.4,0ZM117.5,18.9c.2,0,2.4.4,3.1,0,0-.2-.1-.5-.2-.7,0,0,0,0,0,0-.9,0-3.3,0-3.6.6,0,0,.4,0,.6,0ZM116.8,20.4c.2,0,3.3.6,4.2,0,0-.3-.2-.6-.2-.9,0,0,0,0-.1,0-1.2,0-4.4,0-4.7.8,0,0,.6-.1.9,0ZM116.2,21.9c.3.1,4.2.7,5.3,0,0-.4-.2-.7-.3-1.1,0,0-.1,0-.2,0-1.5,0-5.4,0-5.8,1,0,0,.7-.1,1.1,0ZM115.7,24c.4.1,4.9.5,6.3-.3-.1-.4-.2-.9-.4-1.3,0,0-.2,0-.3,0-1.8.1-6.4.5-6.9,1.7,0,0,.8-.2,1.3,0ZM115.8,26.3c.4.1,5.6.5,6.8-.4-.1-.4-.2-.9-.4-1.3-.1,0-.3,0-.4,0-2,.1-6.8.5-7.3,1.8,0,0,.9-.2,1.3-.1ZM116.1,28.6c.4.1,5.7.6,7.1-.4-.1-.5-.3-.9-.4-1.4-.1,0-.3,0-.4,0-2.1.1-7.2.5-7.7,1.9,0,0,.9-.3,1.4-.1ZM116.5,30.8c.4.1,5.8.6,7.3-.4-.2-.5-.3-1-.5-1.5,0,0-.2,0-.3,0-2.2.1-7.5.6-8.1,2,0,0,1-.3,1.5-.1ZM123.7,31.1c-2.3.1-7.9.6-8.5,2.1,0,0,1-.3,1.6-.1.4.1,6.1.6,7.7-.4-.2-.5-.3-1.1-.5-1.6,0,0-.2,0-.3,0ZM115.2,35.5s1.1-.3,1.6-.1c.5.1,7.4.7,8.4-.7-.2-.5-.3-1-.5-1.4-.2,0-.4,0-.7,0-2.4.1-8.3.6-8.8,2.2ZM126,37s0,0,0,0c-.2-.5-.3-1-.5-1.6-.1,0-.3,0-.5,0-2.5.1-8.7.6-9.2,2.2,0,0,.8-.2,1.4-.2-.4,0-.8.4-1.2.9h.8c.1-.5.4-.9.4-.9,0,0,.2,0,.3,0,.5.1,7.2.7,8.6-.5ZM126.2,37.8c-.1,0-.2,0-.4,0-1.4,0-3.9.3-6,.7h6.6c0-.2-.2-.5-.2-.7ZM128.7,46.2c0,.2-.1.7-.2,1.2.4,0,.8-.2,1.1-.3-.1-.3-.3-.7-.4-1-.2,0-.4,0-.6.1ZM128.7,55.5c-.1,0-.2.1-.3.2v.2c.2,0,.5,0,.6,0,0,0,.2,0,.5,0,.2,0,.3.2.5.3,0,0,0-.1.1-.2.3,0,.7,0,1,0,0,.2-.1.5-.2.7.3.1.6.3.8.4-.8.1-1.4.4-1.5.7,0,0,.5-.1.7,0,.1,0,1.3.1,2.2,0,.2,0,.4.2.6.3,0,0,0-.1,0-.2,0,0,0,0,0,0,0,0,0,.1,0,.2,0,0,.2,0,.2.1,0,0,0,0,0-.1.3.3.7.6,1.1.8,0-.2.1-.4.2-.6-.5-.3-1.1-.7-1.6-.9,0-.2-.2-.4-.3-.6,0-.1-.1-.3-.2-.4,0,.2-.1.3-.2.5-.4,0-.9,0-1.3.2.2-.3.3-.7.4-1.1.3,0,.6,0,.8-.2-.1-.3-.3-.7-.4-1,0,0-.1,0-.2,0,0,0,0-.2,0-.3,0-.2-.2-.5-.3-.7-.2-.4-.3-.8-.5-1.2-.3,0-.6,0-.9,0,0-.3,0-.5,0-.7.2,0,.3,0,.5-.1-.2-.5-.4-.9-.6-1.4-.5,0-1,0-1.7.1,0-.5.1-.9,0-.9,0,0,0,0,0,0,.4,0,.8-.1,1.1-.2-.2-.5-.4-1-.6-1.5-.4,0-1,0-1.5.1,0,.7,0,1.3,0,1.6v.2c0,0,.1,0,.2,0,0,.1-.1.2-.2.3v4.6c0-.2.1-.4.2-.6.2,0,.5,0,.7,0-.2.5-.3.9-.4,1.3,0,0-.2,0-.3.1ZM128.9,53c0-.2.1-.5.2-.7.3,0,.7,0,1,0,0,.2-.2.4-.3.6-.3,0-.6,0-.9.1ZM130.7,54.1c.4,0,.8,0,1.2-.1-.1.3-.2.6-.4.9-.3,0-.7,0-1,.1,0-.3.2-.6.2-.9ZM152.1,14c.2,0,.4,0,.4,0,0,0,.1,0,.1,0,0,0-.3,0-.4,0,0,0,0,0,0,.1ZM152.3,13.5h0c0,0,0,.1,0,.2.1,0,.1-.5.1-.5,0,0,0-.1,0-.1,0,0-.1.3-.2.4h.1ZM152.7,14.6c0,0,.2,0,.2,0,0-.1-.6-.2-.9-.2,0,0,0,.1,0,.2.2,0,.8,0,.8,0ZM151.6,15.1c.2.1.9,0,1,0,0,0,.2,0,.2,0,0-.2-.8-.2-1.1-.2,0,0,0,.1,0,.2ZM152.5,15.7c0,0,.2,0,.2,0,0-.2-1-.2-1.3-.2,0,0,0,.2-.1.2.3.1,1.1,0,1.2,0ZM151.3,16s0,0,0,0c0,0,0,0,0,0,0,0,0,.2-.1.2,0,0,0,0,0,0,.2.3,1.5,0,1.6,0,.1,0,.3,0,.3,0-.1-.3-1.3-.3-1.8-.3ZM151,16.8s0,0-.1,0c0,.1-.1.3-.2.4.3.3,2.2,0,2.3,0,.1,0,.4,0,.4,0-.2-.4-1.8-.4-2.5-.4ZM150.5,18c0,0-.1,0-.2,0,0,.2-.2.4-.2.5.3.6,3.2.1,3.4,0,.2,0,.7,0,.7,0-.3-.6-2.6-.6-3.6-.6ZM150.1,19.3c-.1,0-.2,0-.3,0,0,.2-.2.5-.3.7.4.8,4.2.2,4.5,0,.3-.1.9,0,.9,0-.4-.8-3.5-.8-4.7-.8ZM149.7,20.5c-.1,0-.3,0-.4,0-.1.3-.2.6-.4.9.5,1,5.2.2,5.5,0,.3-.1,1.1,0,1.1,0-.4-1-4.3-1-5.9-.9ZM148.7,21.9c-.1.4-.3.7-.4,1.1.7,1.1,6.2.6,6.5.5.4-.1,1.3,0,1.3,0-.5-1.2-5-1.5-6.9-1.6-.2,0-.3,0-.5,0ZM154.3,25.7c.5-.1,1.3,0,1.3,0-.5-1.3-5.3-1.6-7.3-1.7-.2,0-.4,0-.5,0-.2.4-.3.8-.5,1.1.7,1.2,6.5.7,6.9.5ZM146.6,27.3c.8,1.2,6.9.7,7.3.5.5-.1,1.4,0,1.4,0-.5-1.3-5.6-1.7-7.7-1.8-.2,0-.4,0-.6,0-.2.4-.3.8-.5,1.2ZM145.8,29.5c.9,1.3,7.2.7,7.7.5.5-.2,1.5.1,1.5.1-.5-1.4-5.9-1.8-8.1-1.9-.2,0-.4,0-.6,0-.2.4-.3.9-.5,1.3ZM145,31.7c1,1.3,7.5.7,8,.5.5-.2,1.6.1,1.6.1-.6-1.5-6.2-1.9-8.5-2-.2,0-.4,0-.6,0-.2.5-.3.9-.5,1.4ZM144.2,33.9c1.2,1.2,7.8.6,8.3.5.6-.2,1.6.1,1.6.1-.6-1.5-6.5-2-8.9-2.1-.2,0-.4,0-.5,0-.2.5-.4,1-.5,1.5ZM142.9,46.7c-.3-.5-1.6-.7-2.5-.8,0,0,0,0,0,0,0,.1,0,.3-.1.4.6.2,1.6.3,2.7.4,0,0,0,0,0,0ZM151.4,13.6s.3.3.4.3c0,0,0,0,0-.1,0,0,0,0,0,0-.1,0-.4-.3-.5-.3,0,0,0,0,0,0ZM152.1,13.4c0-.2.2-.4.1-.4,0,0,0,0,0,0,0,0-.3.3-.3.4,0,0,0-.1,0-.2h.1ZM150.9,13.9s.4.5.6.5c0,0,0-.1,0-.2,0,0,0,0,0,0-.2-.2-.7-.5-.8-.5,0,0,.1,0,.1.1ZM150.6,14.4s.4.5.7.6c0,0,0-.1.1-.2-.3-.2-.8-.6-.9-.5,0,0,.1,0,.2.1ZM150.3,14.9s.4.4.7.6c0,0,0-.2.1-.3-.3-.2-.8-.6-1-.5,0,0,.1,0,.2.1ZM149.7,15.3c0,0,.5.6.9.9,0-.1.1-.2.2-.4-.4-.3-1.1-.8-1.4-.7,0,0,.2,0,.3.2ZM148.7,15.7c0,.1,1,1.1,1.6,1.4,0-.2.1-.3.2-.5-.5-.4-1.8-1.4-2.1-1.2,0,0,.3.1.3.3ZM147.2,16.4c0,.2,1.6,1.8,2.4,2,.1-.2.2-.4.3-.7,0,0,0,0,0,0-.7-.6-2.6-2.1-3.2-1.8,0,0,.4.2.5.4ZM145.7,17.2c.1.2,2.2,2.5,3.3,2.7.1-.3.2-.6.4-.8,0,0,0,0-.1,0-1-.8-3.4-2.7-4.2-2.3,0,0,.5.3.7.5ZM144.3,18c.2.3,2.8,3.2,4.1,3.4.2-.3.3-.7.5-1,0,0-.1,0-.2-.1-1.2-1-4.2-3.4-5.2-2.9,0,0,.6.3.8.7ZM142.6,19.3c.2.3,3.6,3.5,5.1,3.7.2-.4.4-.8.5-1.2,0,0-.2,0-.2-.2-1.5-1.1-5.3-3.6-6.4-3,0,0,.8.3,1,.7ZM141.2,21.1c.2.3,4,3.9,5.5,3.9.2-.4.4-.8.5-1.3-.1,0-.2-.1-.4-.2-1.6-1.1-5.6-3.9-6.8-3.2,0,0,.8.4,1.1.8ZM140.1,23.1c.2.3,4.1,4,5.8,4.1.2-.5.4-.9.6-1.4-.1,0-.2-.1-.3-.2-1.7-1.2-5.9-4.1-7.2-3.3,0,0,.9.4,1.2.8ZM139,25.1c.2.4,4.2,4.1,6,4.3.2-.5.4-1,.6-1.5,0,0-.2-.1-.3-.2-1.8-1.3-6.2-4.3-7.5-3.5,0,0,.9.4,1.2.8ZM137.9,27c.3.4,4.4,4.3,6.3,4.5.2-.5.4-1,.6-1.6,0,0-.2-.1-.3-.2-1.9-1.3-6.6-4.5-7.9-3.7,0,0,1,.4,1.3.9ZM136.4,28.8c.3.4,5.3,5.1,6.9,4.7.2-.5.4-.9.5-1.4-.1,0-.4-.2-.6-.4-1.9-1.4-6.9-4.7-8.3-3.8,0,0,1,.4,1.3.9ZM135.3,30.7c-1.5-.9-6.6,2.6-8.6,4.1-.1.1-.3.2-.4.3.2.5.4,1.1.6,1.6,1.5,0,4.9-3,6.4-4.4.3.2.8.5,1.1.8-2.2.8-5.4,3-6.9,4.1-.1,0-.2.2-.3.2.1.3.2.6.3.9,0,0,0,0,0,0h2c1.3-.8,2.7-2,3.8-3,.2.2.5.3.6.5,0,0,0,.1.2.2-1.2.5-2.7,1.4-3.9,2.2h.6c.7,0,1.4.3,1.8.7.2-.2.5-.4.7-.6.1,0,.2.2.3.3,0,0,.2.2.4.4-.3.2-.6.3-1,.5.2.3.3.7.3,1.1,0,0,0,.1,0,.2v.8c.1.1.3.3.5.5-.2,0-.4.2-.5.3v.4c0,.3,0,.5-.1.8,0,.2-.2.4-.3.6-.4.7-1.2,1.2-2,1.3-.1,0-.4,0-.7,0,0,.1,0,.2.1.3,0,.1.1.3.2.4.8-.3,1.8-1,2.8-1.7.2.2.4.4.7.7-.6.3-1.2.7-1.8,1.1-.3,0-.5,0-.7,0,0,0,.1,0,.3.2-.4.2-.7.5-.9.7.2.5.4,1,.6,1.5.5-.2,1.1-.6,1.6-1,.2.2.5.4.8.7-.4.2-.7.5-1,.7-.5-.2-.9-.2-1.1,0,0,0,.4.2.6.4-.2.1-.3.2-.5.3.2.5.4.9.6,1.4.3-.1.7-.4,1-.6.2.2.4.3.6.5-.4.3-.8.5-1.1.7,0,0-.2,0-.3,0-.3,0-.5,0-.7,0,0,0,.6.2.7.5,0,0,.2.2.3.3,0,.2.2.3.2.5,0,0,.1,0,.2-.1.2.2.5.4.8.7-.2.1-.4.3-.6.4.1.3.3.6.4.8-.7-.4-1.3-.6-1.6-.4,0,0,.4.2.6.4,0,.1.9.9,1.7,1.5,0,.2.2.4.3.6,0,0,.1,0,.2,0,0,0,0,0,0,.1,0,0,0,.1,0,.2,0,0,0,.2.1.3,0,0,0,0,0-.1,0,.4.2.9.3,1.3.2-.1.4-.3.5-.4-.2-.5-.4-1.2-.7-1.7,0-.2.1-.4.2-.7,0-.2,0-.3.1-.5-.1,0-.3.2-.4.3-.3-.2-.8-.5-1.2-.7.3-.1.7-.4,1-.6.3.2.5.3.8.4,0-.3.2-.7.3-1,0,0,0,0-.1,0,0,0,.1-.1.2-.2,0-.2.1-.5.2-.7.1-.4.2-.8.4-1.2-.2-.1-.5-.3-.7-.5.2-.2.4-.3.5-.5.2,0,.3.1.5.2.1-.5.3-.9.4-1.4-.4-.3-.9-.6-1.4-.9.4-.3.6-.6.7-.7,0,0,0,0,0,0,.4.2.7.4,1,.5.2-.5.3-1.1.5-1.6-.6-.4-1.4-1-2.3-1.5,0,0,.1-.1.2-.2,0-.1.2-.3.4-.4.8.5,1.5,1,2.1,1.1,0,0,0-.1,0-.2-1.2-.3-2-1.3-2-2.6v-.4c-.3-.2-.5-.3-.8-.5.2-.2.5-.4.7-.5,0,0,0,0,.1,0v-.8c0-.5.1-.9.4-1.3-.4-.2-.8-.5-1.2-.7.3-.2.5-.3.7-.4.3.2.5.4.8.6.5-.5,1.2-.9,2-.9h.5c-1.1-.7-2.6-1.7-4-2.4.2-.1.4-.2.4-.2-.2-.1-.6-.2-1,0-.7-.3-1.3-.6-1.8-.7.6-.6,1-1,1.1-1.1,0,0,0,0,0,0,1.4,1.4,4.9,4.4,6.6,4.5.2-.6.4-1.2.6-1.8-.1,0-.2-.1-.3-.2-1.2-.9-3.5-2.4-5.5-3.4,0,0,0,0,0,0-.1,0-.2,0-.3-.1-1-.5-1.9-.8-2.5-.8.2-.2.3-.3.3-.4.3-.5,1.4-1,1.4-1,0,0,.1.1.2.2.3.4,5.2,5,7,5,0,0,0,0,0,0,.2-.5.4-1,.6-1.5-.1,0-.3-.2-.4-.3-2-1.4-7.2-4.9-8.6-4,0,0,.8.3,1.2.8ZM135.7,53.3c-.3-.2-.6-.4-.9-.5.3-.2.5-.4.8-.6.3.2.7.5,1,.6-.3.2-.6.3-.8.5ZM135.6,50.6c-.3-.2-.5-.3-.8-.5.2-.2.4-.3.6-.5.3.2.5.4.8.6-.2.1-.4.2-.6.3ZM136.6,47.5c-.3.1-.7.3-1.1.5-.4-.2-.8-.4-1.2-.6.3-.3.7-.6,1-.8.4.3.8.7,1.3,1ZM136.5,44.5c-.3,0-.6.2-1,.4-.4-.2-.8-.4-1.2-.6.3-.3.6-.6.9-.8.4.3.9.7,1.3,1ZM136.7,41.5c-.3,0-.7.2-1.1.3-.5-.2-.9-.5-1.3-.6.4-.3.7-.7,1-.9.4.4.9.8,1.5,1.2ZM136.9,38.6c-.3,0-.7,0-1.2.1-.6-.3-1.1-.5-1.6-.7.4-.4.8-.7,1-1,.5.4,1.1,1,1.8,1.5ZM177.7,34.5c0,0-.1-.2-.3-.3,0,0,0,0-.1,0,.1,0,.3.2.3.2,0,0,0,0,0,0ZM177.8,34h0s0,0-.1,0c0,0,.4-.3.4-.4,0,0,0,0,0,0,0,0-.3.1-.4.2h0ZM177.4,35c0,0,.1.1.1.1,0-.2-.4-.5-.6-.7,0,0-.1,0-.2,0,.1.2.6.5.7.5ZM177.2,35.5c0-.2-.5-.6-.7-.8,0,0-.1,0-.2.1.1.2.7.6.8.6,0,0,.2.1.2.1ZM175.6,35.1c.1.3.9.7.9.7,0,0,.2.1.2.1,0-.2-.6-.8-.9-1,0,0-.2,0-.2.1ZM175.3,35.2s0,0,0,0c0,0-.1,0-.2.1,0,0,0,0,0,0,0,.3,1.2,1,1.3,1,.1,0,.2.2.2.2,0-.3-.8-1-1.2-1.3,0,0,0,0,0,0ZM174.6,35.6c-.1,0-.3.1-.4.2,0,.5,1.7,1.4,1.8,1.4.1,0,.3.3.3.3.1-.4-1.2-1.4-1.7-1.8,0,0,0,0,0,0ZM175.5,38.7c.2,0,.5.4.5.4.2-.6-1.7-2.1-2.4-2.7,0,0-.1,0-.2-.1-.2,0-.4.2-.5.3,0,.7,2.4,2.1,2.6,2.1ZM175.6,40.6c.2-.8-2.2-2.8-3.2-3.5,0,0-.2-.1-.2-.2-.2.1-.4.2-.7.4-.2.8,3.2,2.8,3.4,2.8.3,0,.7.5.7.5ZM171,37.5c-.3.1-.5.3-.8.5-.3,1,3.9,3.4,4.3,3.5.4.1.8.7.8.7.3-1-2.7-3.5-4-4.4-.1,0-.2-.2-.3-.2ZM169.7,38.3c-.3.2-.7.4-1,.6-.1,1.3,4.4,4.3,4.8,4.5.4.2.9.9.9.9.4-1.2-3-4.3-4.4-5.6-.1-.1-.2-.2-.3-.3ZM167.7,39.4c-.4.2-.7.4-1.1.6-.2,1.4,4.7,4.6,5.1,4.7.4.2,1,.9,1,.9.4-1.3-3.2-4.6-4.6-5.9-.2-.1-.3-.3-.4-.4ZM165.8,40.5c-.4.2-.7.4-1.1.7-.2,1.4,4.9,4.8,5.4,5,.5.2,1,1,1,1,.4-1.3-3.3-4.8-4.9-6.2-.2-.1-.3-.3-.4-.4ZM163.8,41.6c-.4.2-.8.5-1.2.7-.1,1.5,5.2,5,5.6,5.2.5.2,1.1,1,1.1,1,.5-1.4-3.5-5.1-5.1-6.5-.2-.1-.3-.3-.4-.4ZM161.9,42.8c-.4.3-.8.5-1.3.8,0,1.6,5.5,5.2,5.9,5.4.5.2,1.1,1.1,1.1,1.1.5-1.5-3.7-5.3-5.4-6.8-.2-.1-.3-.3-.4-.4ZM160,43.9c-.5.3-.9.6-1.4.9.2,1.7,5.7,5.4,6.2,5.6.5.2,1.2,1.1,1.2,1.1.5-1.6-3.8-5.6-5.6-7.2-.2-.1-.3-.3-.4-.4ZM143.7,55.1s0,0-.1,0c0,0,0,.1.1.2v-.2ZM177.1,34s0,0,.1,0c0,0,0,0,0,0,0-.2-.1-.5-.2-.6,0,0,0,0,0,.1,0,0,0,.4.1.5ZM177.7,33.8c.2,0,.4-.2.4-.3,0,0,0,0,0,0,0,0-.4,0-.5.2,0,0,0,0,.1,0h0ZM176.5,34.2c0,0,.1,0,.2,0,0,0,0,0,0,0,0-.2-.2-.9-.4-.9,0,0,0,.1,0,.2,0,0,0,.6.2.8ZM176,34.5c0,0,.1,0,.2-.1,0-.3-.2-.9-.4-1,0,0,0,.1,0,.2,0,0,0,.6.1.9ZM175.4,34.7c0,0,.2,0,.3-.1,0-.4-.3-1-.5-1,0,0,0,.1,0,.2,0,0,0,.6.1.9ZM174.6,33.8c0,0,0,.8.2,1.3.1,0,.2-.1.4-.2-.1-.5-.4-1.4-.6-1.4,0,0,0,.2,0,.3ZM173.6,33.4c0,.1,0,1.5.4,2.1.2,0,.3-.2.5-.2-.1-.7-.5-2.2-.9-2.3,0,0,.1.3.1.4ZM172,33.1c0,.2.1,2.4.6,3.1.2-.1.4-.2.7-.3,0,0,0,0,0,0-.2-.9-.7-3.2-1.4-3.4,0,0,.2.4.1.6ZM170.3,32.7c0,.2.2,3.4.8,4.1.3-.1.5-.3.8-.4,0,0,0,0,0-.1-.3-1.2-1-4.2-1.8-4.4,0,0,.2.5.2.8ZM168.7,32.4c0,.3.2,4.3,1.1,5.2.3-.2.7-.3,1-.5,0,0,0-.1,0-.2-.3-1.5-1.2-5.3-2.3-5.5,0,0,.3.7.2,1ZM166.5,32.4c0,.4.6,4.9,1.7,6,.4-.2.8-.4,1.2-.6,0,0,0-.2,0-.3-.5-1.8-1.9-6.2-3.1-6.3,0,0,.4.8.4,1.2ZM164.3,33c0,.4.7,5.6,1.9,6.5.4-.2.8-.4,1.2-.6,0-.1-.1-.3-.1-.4-.5-1.9-2-6.5-3.3-6.7,0,0,.4.8.4,1.3ZM162.2,33.8c0,.4.7,5.7,1.9,6.8.4-.2.9-.5,1.3-.7,0-.1,0-.2-.1-.4-.6-2-2.1-6.9-3.5-7.1,0,0,.5.9.4,1.3ZM160.2,34.7c0,.4.7,5.8,2,7.1.5-.3.9-.5,1.4-.8,0,0,0-.2,0-.3-.6-2.1-2.2-7.2-3.7-7.4,0,0,.5.9.4,1.4ZM158.1,35.5c0,.5.8,6.1,2.1,7.4.5-.3,1-.6,1.4-.8,0,0,0-.2,0-.3-.6-2.2-2.3-7.6-3.9-7.8,0,0,.5.9.5,1.5ZM155.8,36c0,.2.1,1.4.4,2.8.9.4,1.5,1.3,1.5,2.4v2.1c0,0,0,.1,0,.2.2.3.4.6.6.7.4-.3.9-.5,1.3-.8,0-.2-.1-.4-.2-.6-.7-2.3-2.4-7.9-4-8.2,0,0,.5,1,.5,1.6ZM157.1,44.7c.2,0,.3-.2.5-.3,0-.1,0-.2-.1-.4,0,.2-.2.5-.3.6ZM153.9,46.7c.5-.3,1-.6,1.5-.9,0,0-.1,0-.2,0-.4,0-1.1,0-1.7.3.1.2.3.5.5.6ZM152.8,38.5c-.4-.8-.8-1.4-1.3-1.7.2,0,.4,0,.5,0,.6-.2,1.7.1,1.7.1,0,0,0,.2,0,.3,0,.1,0,.7.2,1.4h1.1c.2,0,.4,0,.6,0-.7-1.7-1.6-3-2.4-3.1,0,0,.4.8.5,1.4-.6-1.6-6.8-2-9.3-2.2-.2,0-.3,0-.5,0-.2.5-.4,1.1-.5,1.6,1.2,1,5.7.8,7.7.6.2.3.4.9.4,1.3-2.3-.7-6.1-1-7.9-1.1-.1,0-.3,0-.4,0-.1.3-.2.6-.3.9,0,.2-.1.4-.2.6h10.1ZM152.6,46.6c-.1.2-.2.4-.2.5,0,0,0,0,0,0,0,.2,0,.3,0,.5.3-.2.5-.3.8-.5,0,0,0-.2,0-.3,0-.2-.1-.4-.2-.6-.1,0-.2.2-.3.3ZM184.3,65.7c0,.2.1.3.1.4,0,0,0,.1,0,.1,0,0,0-.3,0-.4,0,0,0,0-.1,0ZM184.9,65.7h0c0,.1,0,.1,0,.1,0,0,0,0-.1,0,0,.1.5,0,.6,0,0,0,.1,0,.1,0,0,0-.3,0-.5,0ZM183.7,65.6c0,.2.2.8.2.8,0,0,0,.2,0,.2.1,0,0-.7,0-.9,0,0-.1,0-.2,0ZM183.1,65.5c0,.2.2.9.2,1,0,0,0,.2,0,.2.2-.1,0-.8,0-1.1,0,0-.2,0-.2,0ZM182.5,65.3c0,.3.3,1.1.3,1.1,0,0,0,.2,0,.2.2-.1,0-1,0-1.3,0,0-.2,0-.3,0ZM182.1,65.3s0,0,0,0c0,0-.2,0-.2,0,0,0,0,0,0,0-.2.2.3,1.5.4,1.6,0,0,0,.3,0,.3.3-.2,0-1.3-.1-1.8,0,0,0,0,0,0ZM181.4,65.1c-.1,0-.3,0-.4,0-.3.4.4,2.1.5,2.2,0,.1,0,.4,0,.4.4-.3,0-1.8-.2-2.5,0,0,0,0,0-.1ZM180,64.9c-.2,0-.4,0-.6-.1-.5.5.6,3.1.7,3.3.1.2.1.6.1.6.5-.4,0-2.7-.2-3.6,0,0,0-.1,0-.2ZM178.7,64.6c-.2,0-.5,0-.7-.1-.7.5.7,4.1.9,4.4.2.3.2.8.2.8.7-.5,0-3.6-.3-4.8,0-.1,0-.2,0-.3ZM177.4,64.4c-.3,0-.6-.1-.9-.2-.9.7.9,5.1,1.1,5.4.2.3.2,1,.2,1,.8-.6,0-4.4-.4-5.9,0-.1,0-.3,0-.4ZM175.9,64.1c-.4,0-.8-.1-1.2-.2-.9.9.8,6.1,1,6.5.2.4.2,1.3.2,1.3,1.1-.7.4-5.3,0-7.1,0-.2,0-.3,0-.5ZM173.6,63.8c-.4,0-.8-.1-1.2-.2-1,.9.8,6.5,1,6.9.2.4.2,1.3.2,1.3,1.1-.7.4-5.6,0-7.5,0-.2,0-.4,0-.5ZM171.4,63.4c-.4,0-.9-.1-1.3-.2-1,1,.8,6.8,1.1,7.2.3.4.2,1.4.2,1.4,1.2-.8.4-5.9,0-7.9,0-.2,0-.4,0-.6ZM169.2,63.1c-.5,0-.9-.1-1.4-.2-1,1.1.9,7.2,1.1,7.6.3.5.2,1.5.2,1.5,1.2-.8.4-6.2,0-8.3,0-.2,0-.4,0-.6ZM167,62.8c-.5,0-1-.1-1.5-.2-1,1.3,1,7.5,1.2,7.9.3.5.2,1.5.2,1.5,1.3-.9.5-6.5,0-8.7,0-.2,0-.4,0-.6ZM164.8,62.5c-.5,0-1.1-.1-1.6-.2-.9,1.5,1.1,7.8,1.3,8.2.3.5.2,1.6.2,1.6,1.4-.9.5-6.8,0-9.1,0-.2,0-.4,0-.5ZM162.5,62.3c-.6,0-1.1-.1-1.7-.2-.9,1.7,1.2,8,1.5,8.5.3.5.3,1.7.3,1.7,1.4-.9.5-7.1,0-9.5,0-.2,0-.3,0-.5ZM160,62.4c0-.1,0-.3,0-.4-.3,0-.7,0-1,0-.3,0-.6,0-.9,0-.8,1.9,1.3,8.3,1.6,8.7.3.5.3,1.8.3,1.8,1.5-1,.5-7.4,0-9.9ZM157.3,61.8c-.6,0-1.2-.1-1.8-.1-.6,1.9,1.3,7.7,1.5,8.1.3.5.3,1.7.3,1.7,1.4-.9.5-6.9,0-9.3,0,0,0-.2,0-.3ZM154.6,61.6c-.6,0-1.2,0-1.7-.1-.4,1.9,1.2,7.1,1.5,7.5.3.5.2,1.5.2,1.5,1.3-.9.5-6.5,0-8.8,0,0,0,0,0-.1ZM152,62c0,2-.2,3.9-.5,5.9,0,0,0,.2,0,.2.2.3.2,1,.2,1.3,0,0-.3,0-.6,0-.1.5-.2,1-.4,1.4,1.3-.6,2.3-1.3,2.4-1.9,0,0-.7.4-1.3.4.9-1.1.4-5.1,0-7.4ZM184.6,64.9s-.2.3-.2.5c0,0,0,0,.1,0,0,0,0,0,0,0,0-.1.2-.5.2-.6,0,0,0,0,0,0ZM184.9,65.6c.2,0,.4.1.5,0,0,0,0,0-.1,0,0,0-.4-.2-.5-.2,0,0,0,0,.1,0h0ZM184.1,64.5s-.4.5-.4.7c0,0,.1,0,.2,0,0,0,0,0,0,0,.1-.2.4-.8.3-.9,0,0,0,.1,0,.2ZM183.7,64.1s0,.1,0,.2c0,0-.4.5-.4.8,0,0,.2,0,.2,0,.1-.3.4-.9.3-1ZM182.8,65c.2-.4.4-.9.3-1.1,0,0,0,.2-.1.2,0,0-.3.5-.5.8,0,0,.2,0,.3,0ZM182.3,64.9c.2-.5.6-1.3.4-1.5,0,0,0,.2-.1.3,0,0-.5.7-.7,1.1.1,0,.3,0,.4,0ZM181.5,64.7c.3-.6,1-2,.7-2.4,0,0,0,.3-.2.4,0,0-.9,1.3-1,1.8.2,0,.3,0,.5.1ZM180.1,64.4s0,0,0,0c.4-.8,1.4-3,1-3.5,0,0-.1.4-.3.6-.1.1-1.4,2-1.5,2.8.2,0,.5.1.7.2ZM178.8,64.1s0,0,0-.1c.6-1.1,1.9-3.9,1.3-4.6,0,0-.1.6-.4.8-.2.2-1.9,2.7-1.9,3.8.3,0,.6.1.9.2ZM176.4,63.7c.4,0,.7.1,1.1.2,0,0,0-.1,0-.2.7-1.4,2.3-4.9,1.7-5.7,0,0-.2.7-.5,1-.2.2-2.5,3.5-2.4,4.7ZM176,63.6c0,0,0-.2,0-.3.7-1.7,2.4-6,1.5-6.9,0,0-.2.9-.5,1.2-.3.3-2.6,4.2-2.5,5.8.4,0,.9.2,1.3.2ZM173.7,63.2c0-.1,0-.3.2-.4.8-1.8,2.5-6.3,1.6-7.3,0,0-.2.9-.5,1.2-.3.3-2.9,4.8-2.6,6.2.4,0,.9.2,1.3.2ZM171.5,62.8c0-.1,0-.2.1-.4.8-1.9,2.7-6.7,1.7-7.7,0,0-.2.9-.5,1.3-.3.3-3,4.9-2.7,6.5.5,0,1,.2,1.4.3ZM169.3,62.4c0,0,0-.2.1-.3.8-2,2.8-7,1.8-8.1,0,0-.2,1-.5,1.4-.3.3-3.1,5-2.9,6.8.5,0,1,.2,1.6.2ZM167.1,62c0,0,0-.2.1-.3.9-2.1,2.9-7.4,1.8-8.5,0,0-.2,1-.6,1.4-.3.3-3.2,5.3-3,7.1.5,0,1.1.2,1.6.2ZM164.8,61.7c0-.2.1-.4.2-.6.9-2.2,3.1-7.7,1.9-8.9,0,0-.2,1.1-.6,1.5-.3.4-3.8,6.3-3.1,7.8.5,0,1,.1,1.5.2ZM164.8,51.6s-.2.8-.5,1.4c.5-1.6-4-5.8-5.9-7.5-.1-.1-.2-.2-.4-.3-.5.3-1,.6-1.5.9.3,1.5,4,4.2,5.7,5.3,0,.4-.3.9-.5,1.2-1.3-2-4.1-4.6-5.5-5.8-.1,0-.2-.2-.3-.3-.3.2-.6.4-.8.5-.2.2-.5.3-.7.5.4,1.3,3,3.4,4.8,4.7,0,.3-.2.6-.4.7,0,0,0,.1-.2.2-1.3-1.8-3.6-3.9-4.8-4.9,0,0-.1-.1-.2-.2-.5.3-1,.7-1.5,1,.4,1.1,2.4,2.8,4,3.9,0,.1-.1.3-.2.4,0,0-.2.2-.3.5-1.1-1.3-2.6-2.7-3.6-3.7,0,.9,0,1.7-.1,2.6.4.3.8.6,1.1.9,0,.1-.3.4-.5.8-.2-.2-.4-.5-.6-.7,0,.3,0,.6,0,1v5.5s0,0,0,0c0,0,0,0,0,0,.4-.8.9-2.2,1.3-3.6.2.1.4.4.6.6-.5,1.2-1,2.4-1,3.2.6,0,1.2.1,1.8.2,0,0,0,0,0,0,.4-1,1.2-2.9,1.7-4.6.2.2.4.5.5.6-.7,1.5-1.4,3.2-1.3,4.1.6,0,1.2.1,1.8.2,0,0,0-.2,0-.2.5-1.2,1.4-3.4,1.9-5.3.2.2.3.4.3.4,0-.3,0-.6-.1-1,.2-.7.3-1.4.3-1.9.7.5,1.2.8,1.3.8,0,0,0,0,.1,0-1,1.7-3.2,5.8-2.9,7.4.6,0,1.2.1,1.9.2,0-.1,0-.2.1-.4.6-1.4,1.6-4,2.1-6.2,0,0,0,0,0,0,0-.1,0-.2,0-.4.2-1.1.3-2,.2-2.6.2.1.4.2.4.2.6.2,1.2,1.1,1.3,1.1,0,0,0,.2-.2.2-.4.4-3.7,6.1-3.3,8,0,0,0,0,0,0,.5,0,1.1.1,1.6.2,0-.1.1-.3.2-.5,1-2.3,3.2-8.1,2-9.3ZM154.1,56.7c-.1-.3-.3-.6-.6-1,.1-.5.3-1,.3-1.4.4.3.8.6,1.1.8-.3.5-.6,1.1-.9,1.7ZM157,56.3c0-.3-.1-.7-.4-1.2.1-.6.3-1.2.3-1.7.5.3.9.6,1.2.8-.3.6-.7,1.3-1.1,2ZM143.7,57.4v-1c-.2-.2-.4-.4-.6-.6,0,0,0-.2,0-.3,0-.3,0-.5-.2-.7,0,0-.1.6-.3.8,0,0-.1.2-.3.4-.1.1-.3.2-.4.3,0,0,0,.1.1.2-.2.3-.3.6-.5.9-.2-.2-.4-.3-.5-.5-.2.2-.5.4-.7.6.2-.7.3-1.4,0-1.7,0,0,0,.5-.3.6,0,0-.7,1.1-1,2-.2.1-.3.3-.5.4,0,0,.1.2.2.2-.1,0-.3,0-.4,0,0,0-.1.1-.2.2.2,0,.5,0,.7,0,.3,0,.6,0,.9,0,.2,0,.3,0,.5,0-.1-.1-.2-.2-.4-.4.1-.4.3-.8.4-1.3.2.3.5.6.8.9-.1.3-.2.6-.2.8.4,0,.7,0,1.1,0,0,0,0,0,0-.1,0,0,.1.1.2.2.3,0,.5,0,.8,0,.2,0,.5,0,.7,0v-2.2ZM143,59c-.2-.2-.4-.5-.7-.7.1-.3.2-.7.3-1,.2.2.5.4.7.6-.2.4-.3.8-.4,1.1ZM137.4,59.3c.2-.5.4-1.2.5-1.7.2-.1.4-.3.5-.4.1,0,.3-.2.4-.3-.2,0-.3,0-.5,0-.1-.4-.3-.9-.5-1.3.3,0,.7.1,1.2.1.1.3.2.6.3.8.3-.2.6-.4.9-.6,0,0,0,0,0-.1,0,0,.2,0,.3,0,.2-.1.4-.3.6-.4.3-.2.7-.5,1-.7,0-.2-.2-.5-.3-.9.3,0,.5,0,.7,0,0,.2.2.3.2.4.3-.2.6-.4.8-.6,0-.6,0-1.1,0-1.7,0,0,0-.1,0-.2,0,0,0,0,0,0,0-.4,0-.7,0-1.1-.1,0-.3,0-.4,0-.2-.4-.3-.8-.5-1.2.3,0,.5,0,.8,0,0-.5-.1-1-.2-1.5-.5,0-1.1-.1-1.6-.2-.2-.2-.4-.3-.6-.4,0,0,0,.1.2.3-.4,0-.8,0-1.1,0-.1.5-.3,1-.4,1.6.5.1,1.2.2,1.9.3,0,.3,0,.6.2,1-.4,0-.8,0-1.2-.1-.3-.4-.6-.7-.8-.7,0,0,.2.3.3.7-.2,0-.4,0-.6,0-.1.5-.3,1-.4,1.5.3,0,.7.1,1.2.2,0,.2,0,.5.1.7-.5,0-.9,0-1.3-.1,0,0-.1-.2-.2-.2-.2-.2-.4-.4-.5-.4,0,0,.3.5.3.8,0,0,0,.2,0,.5,0,.2,0,.4-.1.5,0,0,.2,0,.2,0,0,.3.1.7.2,1-.3,0-.5,0-.7,0,0,.3-.2.6-.2.9-.3-.7-.7-1.3-1-1.3,0,0,.2.4.2.7,0,.1.1,1.3.4,2.2,0,.2-.1.4-.2.6,0,0,.1,0,.2,0,0,0,0,0,0,.1,0,0-.1,0-.2.1,0,0,0,.2,0,.3,0,0,0,0,0,0-.2.4-.4.8-.5,1.2.2,0,.4,0,.7,0ZM141.9,51.7c0,.3.2.7.3,1-.2,0-.5,0-.7-.1-.1-.3-.2-.6-.3-.8.2,0,.5,0,.7,0ZM140.5,53.7c.1.4.2.8.4,1.1-.3,0-.6-.1-1-.1-.1-.3-.2-.7-.4-1,.3,0,.6,0,.9,0ZM161.9,101.5s0,0,0,0c0,0,.2-.1.3-.3,0,0,0,0,0-.1,0,.1-.2.3-.2.3Z"/>
  <path class="st1" d="M139.3,64c0,0-.2-.7-.4-1.3,0,0,0,0,0-.1-.1-.2-.3-.4-.4-.5-.3,0-.8-.2-1.1-.3,0,.5,0,1,0,1.3,0,0,0,0,0,.1.9.4,1.8.9,2,1,0,0,0-.1,0-.2M162.4,101s0,0,0-.1c0-.1-.1-.2-.2-.4,0,0,0-.1,0-.2,0,0,0-.2-.1-.3,0,0,0-.1-.1-.2,0-.1-.1-.2-.2-.3,0,0,0-.2-.1-.3,0,0,0-.2-.1-.2,0-.1-.1-.2-.2-.4,0-.1-.1-.3-.2-.4,0-.2-.2-.3-.2-.5-.1-.3-.3-.5-.4-.8-.1-.2-.2-.4-.3-.6,0-.2-.2-.4-.3-.6-.1-.3-.3-.5-.4-.8,0-.1-.1-.3-.2-.4-.2-.3-.3-.7-.5-1,0-.1-.1-.2-.2-.4-.2-.4-.4-.8-.6-1.2-.1-.3-.3-.5-.4-.8-.2-.4-.4-.8-.7-1.2-.1-.3-.3-.5-.4-.8-.2-.4-.5-.9-.7-1.3-.1-.2-.3-.4-.4-.6-.3-.5-.5-.9-.8-1.4-.1-.2-.2-.4-.3-.6-.3-.5-.6-1-.9-1.4-.1-.2-.2-.4-.3-.6-.3-.4-.5-.9-.8-1.3-.1-.2-.3-.4-.4-.7-.3-.5-.6-.9-.9-1.4,0,0,0,0,0,0-.1-.2-.3-.4-.4-.6-.3-.5-.7-1.1-1-1.6-.2-.2-.3-.5-.5-.7-.2-.4-.5-.7-.7-1.1-.2.3-.4.6-.7.9.2.3.4.5.5.8.2.2.3.5.5.7.2.2.3.5.5.7.2.3.4.6.5.8.1.2.3.4.4.6.3.5.6,1,1,1.4.1.2.3.4.4.6.3.4.6.9.9,1.4.1.2.3.4.4.6.3.4.5.8.8,1.3.2.2.3.5.5.7.2.4.5.8.7,1.2.2.3.3.5.5.8.2.4.4.7.7,1.1,0,.2.2.3.3.5,0,.1.2.3.2.4.2.4.4.7.6,1.1.2.3.4.6.5.9.2.3.4.7.6,1,0,.2.2.3.3.5.2.3.3.5.5.8,0,.2.2.4.3.5.1.2.2.4.4.7.1.2.2.5.4.7,0,.2.2.3.3.5.1.3.3.5.4.8,0,.1.1.3.2.4,0,.1.1.3.2.4,0,0,0,0,0,0,0,0,0,.1.1.2,0,0,0,0,0,0,0,0,.1.2.2.3,0,0,0,.2.1.2,0,.1.1.3.2.4,0,0,0,.1.1.2,0,0,.1.2.2.3,0,0,0,.1,0,.2,0,.1.1.2.2.4,0,0,0,0,0,.1,0,0,0,.2.1.2,0,0,0,0,0,.1h0s.1,0,.1,0h0s0,0,0,0c0,0,0,0,0-.1,0-.1-.1-.2-.2-.3ZM132.8,95.9c0,0,0,.1,0,.2,0,.2,0,.3,0,.5,0,.4-.1.8-.2,1.2,0,.4-.1.7-.2,1.1,0,.4-.1.8-.2,1.2,0,.2,0,.4,0,.6,0,.3,0,.6-.1.9,0,.2,0,.4,0,.6,0,.2,0,.5-.1.7,0,.3,0,.5-.1.8,0,.2,0,.4-.1.6,0,.3-.1.6-.2.9,0,.1,0,.3,0,.4,0,.2,0,.3,0,.5,0,0,0,0,0,0,0,0,0,.2,0,.2,0,0,0,0,0,0,0,.1,0,.2,0,.3,0,0,0,.2,0,.3,0,.1,0,.3,0,.4,0,0,0,.2,0,.2,0,.1,0,.2,0,.3,0,0,0,.1,0,.2,0,.1,0,.3,0,.4,0,0,0,0,0,.1,0,0,0,.1,0,.2,0,0,0,0,0,.1h0s.1,0,.1,0h.1s0,0,0,0c0,0,0-.1,0-.2,0,0,0-.2,0-.3,0,0,0,0,0-.1,0-.1,0-.3,0-.4,0,0,0-.1,0-.2,0-.1,0-.2,0-.3,0,0,0-.2,0-.2,0-.1,0-.2,0-.4,0,0,0-.2,0-.3,0,0,0-.2,0-.2,0-.1,0-.3,0-.4,0-.1,0-.3,0-.4,0-.2,0-.3.1-.5,0-.3.1-.6.2-.8,0-.2,0-.5.1-.7,0-.2,0-.4.1-.6,0-.3.1-.6.2-.9,0-.1,0-.3,0-.4,0-.4.1-.7.2-1.1,0-.1,0-.3,0-.4,0-.4.2-.9.2-1.3,0-.3.1-.6.2-.9,0-.4.2-.9.2-1.3,0-.2,0-.4,0-.5h0c-.2,0-.4,0-.6,0ZM135.2,83c0,0,0-.2,0-.3-.1,0-.2,0-.3,0,.1,0,.2.2.3.3ZM119.6,77.6s0,0-.1.1c-.2.2-.4.4-.5.6-.4.4-.8.8-1.2,1.2-.2.2-.3.3-.5.5-.4.4-.8.8-1.1,1.1-.2.2-.3.4-.5.5-.3.3-.6.6-.9.9h1.2c.2-.1.3-.3.5-.4.2-.1.3-.3.5-.4.4-.4.7-.7,1.1-1.1.2-.2.4-.4.5-.5.4-.4.8-.8,1.2-1.1,0,0,0,0,0,0,.2-.2.4-.4.5-.5,0,0,0,0,.1-.1-.2-.2-.5-.5-.7-.7ZM115.2,64.2c0-.3,0-.7,0-1h0c-.2,0-.3,0-.5,0-.3,0-.6,0-.9.1-.3,0-.6,0-.9.1-.3,0-.7,0-1,.1-.3,0-.5,0-.8.1-.6,0-1.1.2-1.7.2-.2,0-.5,0-.7,0-.5,0-1.1.1-1.6.2-.2,0-.5,0-.7,0-.5,0-1,.1-1.5.2,0,0,0,0,0,0-.6.3-1.2.6-1.8.9.4,0,.8,0,1.2,0,.2,0,.4,0,.6,0,.6,0,1.1,0,1.7-.1.2,0,.4,0,.6,0,.5,0,1,0,1.5-.1.3,0,.5,0,.8,0,.5,0,1.1-.1,1.6-.2,0,0,0,0,0,0,.3,0,.5,0,.8,0,.6,0,1.2-.1,1.9-.2.3,0,.6,0,.9-.1.1,0,.3,0,.4,0ZM101.1,38.8c-.3-.2-.5-.4-.8-.5-.2-.1-.3-.2-.5-.3-.2-.1-.4-.3-.6-.4-.2-.1-.4-.3-.6-.5-.2-.1-.3-.2-.5-.4-.3-.2-.5-.4-.8-.5-.1,0-.2-.2-.4-.3-.1,0-.3-.2-.4-.3,0,0,0,0,0,0,0,0-.1-.1-.2-.2,0,0,0,0,0,0,0,0-.2-.1-.3-.2,0,0-.1-.1-.2-.2-.1,0-.2-.2-.3-.3,0,0-.1,0-.2-.1,0,0-.2-.1-.3-.2,0,0-.1,0-.2-.1-.1,0-.2-.2-.3-.2,0,0,0,0-.1,0,0,0-.1,0-.2-.1,0,0,0,0-.1,0h0s0,0,0,0h0c0,0,0,.2,0,.2,0,0,0,0,.1,0,0,0,.2.1.3.2,0,0,0,0,0,0,.1,0,.2.2.3.3,0,0,.1,0,.2.1,0,0,.2.1.2.2l.2.2c0,0,.2.2.3.2,0,0,.2.1.2.2,0,0,.1.1.2.2.1,0,.2.2.3.3.1,0,.2.2.3.3.1.1.3.2.4.3.2.2.4.3.7.5.2.1.4.3.6.4.2.1.3.3.5.4.2.2.5.4.7.6.1,0,.2.2.4.3.1,0,.2.2.3.2.4,0,.9.2,1.3.3,0,0,0,0,0,0-.2-.1-.3-.2-.5-.3ZM128.4,55.4v.3c0,0,.2-.1.3-.2,0,0-.2,0-.3-.1ZM111.7,46.9c.2.1.4.3.6.4.5.3.9.6,1.4.9,0,0,0,0,0,0,.2.1.4.3.6.4.2.2.5.3.7.5,0-.3,0-.7,0-1.2,0,0-.1,0-.2,0-.2-.1-.4-.3-.7-.4-.5-.3-1-.6-1.5-.9-.2-.1-.4-.2-.6-.4-.5-.3-.9-.6-1.4-.8-.2-.1-.4-.3-.6-.4-.2-.1-.5-.3-.7-.4.3.5.6,1,.9,1.6.4.3.8.6,1.3.8ZM127.2,37.4c0-.2-.2-.5-.3-.7-.2-.5-.4-1.1-.6-1.6,0-.2-.2-.4-.2-.7-.2-.5-.4-1-.5-1.5,0-.2-.2-.5-.2-.7-.2-.5-.3-.9-.5-1.4,0-.3-.2-.5-.3-.8-.1-.4-.3-.9-.4-1.3,0-.3-.2-.6-.3-.9-.1-.4-.3-.8-.4-1.2,0-.2-.1-.4-.2-.5,0-.1,0-.3-.1-.4-.1-.4-.2-.8-.4-1.2-.1-.3-.2-.7-.3-1-.1-.4-.2-.8-.3-1.1,0-.2-.1-.4-.2-.6,0-.3-.2-.6-.3-.9,0-.2-.1-.4-.2-.6,0-.2-.1-.5-.2-.7,0-.2-.1-.5-.2-.7,0-.2-.1-.4-.2-.6,0-.3-.2-.6-.2-.9,0-.1,0-.3-.1-.4,0-.2,0-.3-.1-.5,0,0,0,0,0,0,0,0,0-.2,0-.2,0,0,0,0,0,0,0-.1,0-.2,0-.3,0,0,0-.2,0-.3,0-.1,0-.3-.1-.4,0,0,0-.2,0-.2,0-.1,0-.2,0-.3,0,0,0-.1,0-.2,0-.1,0-.3-.1-.4,0,0,0,0,0-.1,0,0,0-.1,0-.2,0,0,0-.1,0-.2h0s-.1,0-.1,0h0s-.1,0-.1,0c0,0,0,.1,0,.2,0,0,0,.2,0,.3,0,0,0,0,0,.1,0,.1,0,.3,0,.4,0,0,0,.1,0,.2,0,.1,0,.2,0,.3v.2c0,.1.1.2.1.4,0,0,0,.2,0,.3,0,0,0,.2,0,.2,0,.1,0,.3,0,.4,0,.1,0,.3.1.4,0,.2,0,.3.1.5,0,.3.1.6.2.8,0,.2.1.5.2.7,0,.2.1.4.2.6,0,.3.2.6.2.9,0,.1,0,.3.1.4,0,.4.2.7.3,1.1,0,.1,0,.3.1.4.1.4.2.9.4,1.3,0,.3.2.6.2.9.1.4.2.9.4,1.3,0,.3.2.6.2.8.1.5.3.9.4,1.4,0,.2.1.5.2.7.2.5.3,1,.5,1.5,0,.2.1.4.2.6.2.5.3,1.1.5,1.6,0,.2.1.4.2.6.2.5.3,1,.5,1.4,0,.2.2.5.2.7.2.5.3,1,.5,1.6,0,0,0,0,0,0,0,.2.2.5.2.7,0,.2.2.5.2.7h1s0,0,0,0c-.1-.3-.2-.6-.3-.9ZM148.2,23c.1-.4.3-.7.4-1.1,0-.2.2-.4.2-.5.1-.3.2-.6.4-.9,0-.2.2-.4.2-.6,0-.2.2-.5.3-.7.1-.2.2-.5.3-.7,0-.2.2-.4.2-.5.1-.3.2-.6.4-.9,0-.1.1-.3.2-.4,0-.1.1-.3.2-.4,0,0,0,0,0,0,0,0,0-.2.1-.2,0,0,0,0,0,0,0,0,0-.2.1-.3,0,0,0-.2.1-.2,0-.1.1-.3.2-.4,0,0,0-.1,0-.2,0-.1,0-.2.1-.3,0,0,0-.1,0-.2,0-.1.1-.3.2-.4,0,0,0,0,0-.1,0,0,0-.1,0-.2,0,0,0,0,0-.1h0s-.1,0-.1,0h0s-.1,0-.1,0c0,0,0,.1,0,.2,0,0,0,.2-.1.3,0,0,0,0,0,.1,0,.1-.1.2-.2.4,0,0,0,.1,0,.2,0,0,0,.2-.1.3,0,0,0,.1-.1.2,0,.1-.1.2-.2.3,0,0,0,.2-.1.3,0,0,0,.2-.1.2,0,.1-.1.2-.2.4,0,.1-.1.3-.2.4,0,.2-.1.3-.2.5-.1.3-.2.5-.4.8-.1.2-.2.4-.3.7,0,.2-.2.4-.3.6-.1.3-.3.6-.4.8,0,.1-.1.3-.2.4-.2.3-.3.7-.5,1,0,.1-.1.2-.2.4-.2.4-.4.8-.5,1.2-.1.3-.2.6-.4.8-.2.4-.4.8-.5,1.3-.1.3-.2.5-.3.8-.2.5-.4.9-.6,1.4,0,.2-.2.5-.3.7-.2.5-.4,1-.6,1.5,0,.2-.2.4-.2.6-.2.5-.4,1-.6,1.6,0,.2-.2.4-.2.6-.2.5-.4.9-.5,1.4,0,.2-.2.5-.3.7-.2.5-.4,1-.6,1.5,0,0,0,0,0,0,0,.2-.2.5-.3.7-.2.6-.4,1.2-.6,1.8,0,0,0,0,0,0h1.1c0-.2.1-.4.2-.6.1-.3.2-.6.3-.9,0-.2.2-.5.2-.7.2-.5.4-1.1.5-1.6,0-.2.2-.4.2-.7.2-.5.4-1,.5-1.5,0-.2.2-.5.2-.7.2-.5.3-.9.5-1.4,0-.3.2-.5.3-.8.2-.4.3-.9.5-1.3.1-.3.2-.6.3-.9.2-.4.3-.8.5-1.2,0-.2.1-.4.2-.5,0-.1.1-.3.2-.4.1-.4.3-.8.5-1.1.1-.3.3-.7.4-1ZM152.2,49c.5-.3,1-.7,1.5-1,.2-.2.5-.3.7-.5.2-.2.5-.3.7-.5.3-.2.6-.4.8-.5.2-.1.4-.3.6-.4.5-.3,1-.6,1.5-.9.2-.1.4-.2.6-.4.5-.3.9-.6,1.4-.9.2-.1.4-.3.6-.4.4-.3.8-.5,1.3-.8.2-.1.5-.3.7-.4.4-.2.8-.5,1.2-.7.3-.2.5-.3.8-.5.4-.2.7-.4,1.1-.7.2,0,.3-.2.5-.3.1,0,.3-.2.4-.2.4-.2.7-.4,1.1-.6.3-.2.6-.4.9-.5.3-.2.7-.4,1-.6.2,0,.3-.2.5-.3.3-.2.5-.3.8-.4.2,0,.4-.2.5-.3.2-.1.4-.2.7-.4.2-.1.5-.2.7-.4.2,0,.4-.2.5-.3.3-.1.5-.3.8-.4.1,0,.3-.1.4-.2.1,0,.3-.1.4-.2,0,0,0,0,0,0,0,0,.1,0,.2-.1,0,0,0,0,0,0,0,0,.2,0,.3-.1,0,0,.2,0,.2-.1.1,0,.3-.1.4-.2,0,0,.1,0,.2-.1.1,0,.2-.1.3-.2,0,0,.1,0,.2,0,.1,0,.2-.1.4-.2,0,0,0,0,.1,0,0,0,.1,0,.2-.1,0,0,0,0,.1,0h0s0-.1,0-.1h0c0,0,0-.2,0-.2,0,0,0,0-.1,0-.1,0-.2,0-.3.1,0,0,0,0-.1,0-.1,0-.2.1-.4.2,0,0-.1,0-.2,0,0,0-.2,0-.3.1,0,0-.1,0-.2.1-.1,0-.2.1-.3.2,0,0-.2,0-.3.1,0,0-.2,0-.2.1-.1,0-.2.1-.4.2-.1,0-.3.1-.4.2-.2,0-.3.2-.5.2-.3.1-.5.3-.8.4-.2.1-.4.2-.7.3-.2,0-.4.2-.6.3-.3.1-.5.3-.8.4-.1,0-.3.1-.4.2-.3.2-.7.3-1,.5-.1,0-.2.1-.4.2-.4.2-.8.4-1.2.6-.3.1-.5.3-.8.4-.4.2-.8.4-1.2.6-.3.1-.5.3-.8.4-.4.2-.9.5-1.3.7-.2.1-.4.2-.7.4-.5.3-.9.5-1.4.8-.2.1-.4.2-.6.3-.5.3-1,.6-1.4.8-.2.1-.4.2-.6.3-.4.3-.9.5-1.3.8-.2.1-.4.3-.7.4-.2,0-.3.2-.5.3-.4.6-1,1-1.8,1.1-.5.3-1,.6-1.5.9-.2.2-.5.3-.7.5-.3.2-.5.3-.8.5,0,.5-.1.9-.2,1.4h0ZM142.8,54c-.2.2-.4.3-.7.5-.3.2-.7.5-1,.7-.2.1-.4.3-.6.4,0,0-.1.1-.2.2-.3.2-.6.4-.9.6-.2.1-.4.3-.6.4-.1,0-.3.2-.4.3-.2.1-.4.3-.5.4,0,.5-.3,1.2-.5,1.7-.2,0-.4,0-.7,0,.1-.4.3-.8.5-1.2,0,0,0,0,0,0,0,0,0-.2,0-.3,0,0,0-.2,0-.3,0-.2.1-.4.2-.6-.3-.9-.4-2.1-.4-2.2,0-.2-.2-.7-.2-.7.3,0,.7.6,1,1.3,0-.3.2-.6.2-.9,0-.1,0-.3.1-.4,0-.2,0-.4.1-.6,0-.2,0-.4.1-.5,0-.2,0-.4,0-.5,0-.3-.3-.8-.3-.8.2,0,.4.2.5.4,0-.2.1-.4.2-.6.1-.5.3-1,.4-1.5,0-.4.2-.7.3-1.1.1-.5.3-1,.4-1.6,0-.3.2-.6.3-1,0-.1,0-.3.1-.4,0,0,0,0,0,0-.3,0-.6,0-.7,0-.2,0-.3,0-.5,0,0,0,0,.1,0,.2-.1.3-.2.6-.3,1-.2.5-.3,1.1-.5,1.6-.1.4-.2.7-.3,1.1-.1.5-.3.9-.4,1.4,0,.3-.2.5-.2.8-.1.4-.2.8-.4,1.2,0,.2-.1.5-.2.7,0,0,0,.2,0,.3,0,.3-.2.7-.3,1,0,.2-.1.4-.2.7,0,.2,0,.3-.1.5,0,.2-.1.4-.2.7.3.5.5,1.1.7,1.7-.2.1-.4.3-.5.4-.1-.4-.3-.9-.3-1.3,0,0,0,0,0,.1,0,0,0-.2-.1-.3,0,0,0-.2-.1-.3,0-.2-.2-.4-.3-.6-.8-.6-1.6-1.3-1.7-1.5-.1-.2-.6-.4-.6-.4.3-.2.9,0,1.6.4-.1-.3-.3-.6-.4-.8,0-.1-.1-.3-.2-.4,0-.2-.2-.4-.2-.5,0-.2-.2-.3-.2-.5-.2-.2-.3-.3-.3-.3-.2-.3-.7-.5-.7-.5.2,0,.4,0,.7,0,0-.2-.2-.4-.2-.5-.2-.5-.4-.9-.6-1.4-.1-.3-.3-.7-.4-1-.2-.5-.4-1-.6-1.5-.1-.3-.3-.6-.4-.9,0-.1-.1-.3-.2-.4,0-.1,0-.2-.1-.3-.4,0-.8,0-1.2.2.1.3.3.7.4,1,.1.3.2.6.4.9.2.5.4,1,.6,1.5.1.4.3.7.4,1.1.2.5.4.9.6,1.4.1.3.2.5.3.8.2.4.3.8.5,1.2,0,.2.2.5.3.7,0,0,0,.2.1.2.1.3.3.7.4,1,0,.2.2.4.3.6,0,.1.1.3.2.4,0,.2.2.4.3.6.5.2,1.1.6,1.6.9,0,.2-.1.4-.2.6-.3-.2-.8-.5-1.1-.8,0,0,0,0,0,.1,0,0-.2,0-.2-.1,0,0-.2,0-.3-.1-.2,0-.4-.2-.6-.3-1,0-2.1,0-2.2,0-.2,0-.7,0-.7,0,.1-.3.8-.5,1.5-.7-.3-.1-.5-.3-.8-.4-.1,0-.3-.1-.4-.2-.2,0-.3-.2-.5-.3-.2,0-.3-.2-.5-.3-.3,0-.4,0-.5,0-.2,0-.4,0-.6,0v1c.3.2.6.3.9.5.2.1.4.2.7.4,0,0,.2,0,.2.1.3.2.6.3.9.5.2.1.4.2.6.3.1,0,.3.2.4.2.2.1.4.2.6.3.5-.2,1.2-.2,1.8-.3,0,.2.2.4.3.6-.4,0-.9,0-1.3,0,0,0,0,0,0,0,0,0-.2,0-.3,0,0,0-.2,0-.3,0-.2,0-.4,0-.6.1-.7.6-1.7,1.3-1.8,1.3-.2,0-.5.5-.5.5-.1-.3.3-.9.8-1.5-.3,0-.6.1-.9.2-.2,0-.3,0-.4,0-.2,0-.4,0-.6.1-.2,0-.3,0-.5.1v1c0,.1,0,.2,0,.4.2,0,.5,0,.7-.1.2,0,.5,0,.7-.1,0,0,.2,0,.3,0,.4,0,.7-.1,1.1-.2.2,0,.5,0,.7-.1.2,0,.3,0,.5,0,.2,0,.4,0,.7-.1.3-.4.8-1,1.2-1.3.2.1.4.2.6.3-.3.3-.7.6-1,.9h.1c0,0-.1.1-.2.2,0,0-.1.1-.2.2-.1.2-.3.3-.4.5-.2,1-.5,2-.6,2.2-.1.2,0,.7,0,.7-.3-.2-.3-.9-.3-1.6-.2.2-.4.5-.6.7,0,.1-.2.2-.3.4-.1.2-.3.3-.4.4-.1.1-.2.3-.4.4,0,.2-.1.4-.2.5-.2.3-.1.9-.1.9-.2,0-.3-.3-.3-.6-.1.2-.3.3-.4.5-.2.2-.4.5-.6.7.1.5.3,1,.4,1.5,0,0,0,0,.1-.1.3-.4.7-.7,1-1.1.2-.2.4-.4.5-.6.3-.3.6-.6.8-1,.2-.2.3-.4.5-.6,0,0,.1-.1.2-.2.2-.3.5-.5.7-.8.2-.2.3-.4.5-.5.1-.1.2-.2.3-.4.1-.2.3-.3.4-.5,0-.5,0-1.3.1-1.8.2,0,.4,0,.7-.1,0,.4-.1.9-.2,1.3,0,0,0,0,0,0,0,0,0,.2,0,.3,0,0,0,.2,0,.3,0,.2,0,.4,0,.7.5.8.9,1.9.9,2,0,.2.4.6.4.6-.3,0-.8-.5-1.3-1.1,0,.3,0,.6,0,.9,0,.2,0,.3,0,.5,0,.2,0,.4,0,.6,0,.2,0,.4,0,.6,0,.2.1.4.2.5,0,.3.4.8.4.8-.2,0-.4,0-.6-.3,0,.2,0,.4,0,.6,0,.5,0,1,0,1.5,0,.4,0,.7,0,1.1,0,.5,0,1.1,0,1.6,0,0,0,.1,0,.2.3,0,.6,0,.9,0s.2,0,.3,0c0,0,0,0,0-.1,0-.6,0-1.1.1-1.7,0-.4,0-.8,0-1.2,0-.5,0-1,0-1.5,0-.3,0-.5,0-.8,0-.4,0-.8,0-1.3,0-.3,0-.5,0-.8,0,0,0-.2,0-.3,0-.4,0-.7,0-1.1,0-.2,0-.5,0-.7,0-.2,0-.3,0-.5,0-.2,0-.5,0-.7-.4-.4-.8-1-1-1.5.1-.2.3-.3.4-.5.2.3.5.8.6,1.2,0,0,0,0,0-.1,0,0,0,.1.1.2,0-.1,0-.3-.1-.4,0-.4-.2-.8-.1-1.1,0,0,0,0,.1,0,.1,0,.3,0,.4,0,0,0,0,.1,0,.2.3.1.5.2.8.4,0-.1-.2-.2-.2-.3,0,0-.2-.1-.2-.2.3,0,.6,0,.9,0,0,0,.2,0,.3,0,.3,0,.5,0,.8,0,0,0,0,0,0,0,.4,0,.8,0,1.3,0,.3,0,.7,0,1,0,0,0,0,0,0,0,0,0,0,0,0,0,.1,0,.2,0,.3,0,.2,0,.4,0,.6,0,.3,0,.6,0,.9,0,0,0,0-.2,0-.3v-1.1c-.2,0-.5,0-.7,0-.3,0-.5,0-.8,0,0,0-.2,0-.3,0-.4,0-.7,0-1.1,0-.2,0-.5,0-.7,0-.2,0-.3,0-.5,0-.3,0-.6,0-.9,0-.2,0-.5,0-.7,0,0,0,.1-.1.2-.2,0,0,.2-.1.2-.2.2-.1.4-.3.5-.4.4-.9,1-1.9,1.1-2,.2-.2.3-.6.3-.6.2.2.1.9,0,1.7.2-.2.5-.4.7-.6.1,0,.2-.2.4-.3.2-.1.3-.2.5-.4.1-.1.3-.2.5-.3.1-.2.2-.4.3-.4.2-.2.3-.8.3-.8.1.1.2.4.2.7.2-.1.3-.2.5-.4,0,0,0,0,.1,0v-.4c0-.4,0-.8,0-1.2-.3.2-.6.4-.8.6ZM184.8,65.5c-.1,0-.2,0-.4,0,0,0,0,0-.1,0-.1,0-.3,0-.4,0,0,0-.1,0-.2,0-.1,0-.2,0-.3,0,0,0-.2,0-.2,0-.1,0-.2,0-.4,0,0,0-.2,0-.3,0,0,0-.2,0-.2,0-.1,0-.3,0-.4,0-.1,0-.3,0-.4,0-.2,0-.3,0-.5-.1-.3,0-.6-.1-.8-.2-.2,0-.5-.1-.7-.2-.2,0-.4,0-.6-.1-.3,0-.6-.1-.9-.2-.1,0-.3,0-.4,0-.4,0-.7-.2-1.1-.2-.1,0-.3,0-.4,0-.4,0-.9-.2-1.3-.2-.3,0-.6-.1-.9-.2-.4,0-.9-.2-1.3-.2-.3,0-.6,0-.9-.1-.5,0-1-.2-1.4-.3-.2,0-.5,0-.7-.1-.5,0-1-.2-1.6-.3-.2,0-.4,0-.6-.1-.5,0-1.1-.2-1.6-.2-.2,0-.4,0-.6,0-.5,0-1-.1-1.5-.2-.3,0-.5,0-.8-.1-.5,0-1.1-.1-1.6-.2,0,0,0,0,0,0-.3,0-.5,0-.8,0-.6,0-1.2-.2-1.9-.2-.3,0-.6,0-.9,0-.6,0-1.2-.1-1.8-.2-.3,0-.6,0-.9,0-.6,0-1.2-.1-1.8-.2-.3,0-.7,0-1,0,0,0,0,0,0,0v.9c0,0,0,.2,0,.3.3,0,.6,0,.9,0,.6,0,1.2,0,1.7.1.3,0,.6,0,.9,0,.6,0,1.2,0,1.8.1.3,0,.6,0,.9,0,.3,0,.6,0,.9,0,.3,0,.7,0,1,0,.3,0,.5,0,.8,0,.6,0,1.1.1,1.7.2.2,0,.5,0,.7,0,.5,0,1.1.1,1.6.2.2,0,.5,0,.7,0,.5,0,1,.1,1.5.2.3,0,.6,0,.8.1.5,0,.9.1,1.4.2.3,0,.6,0,.9.1.4,0,.9.1,1.3.2.2,0,.4,0,.6,0,.2,0,.3,0,.5,0,.4,0,.8.1,1.2.2.4,0,.7.1,1.1.2.4,0,.8.1,1.2.2.2,0,.4,0,.6.1.3,0,.6.1.9.2.2,0,.4,0,.6.1.2,0,.5,0,.7.1.3,0,.5,0,.8.1.2,0,.4,0,.6.1.3,0,.6.1.9.2.1,0,.3,0,.4,0,.2,0,.3,0,.5,0,0,0,0,0,0,0,0,0,.2,0,.2,0,0,0,0,0,0,0,.1,0,.2,0,.3,0,0,0,.2,0,.3,0,.1,0,.3,0,.4,0,0,0,.2,0,.2,0,.1,0,.2,0,.3,0,0,0,.1,0,.2,0,.1,0,.3,0,.4,0,0,0,0,0,.1,0,0,0,.2,0,.2,0,0,0,0,0,.1,0h0s0-.1,0-.1h0c0,0,0-.2,0-.2,0,0,0,0-.1,0ZM141.5,66.2c-.2-.3-.5-.7-.7-1-.2-.3-.4-.6-.6-.8-.1-.2-.3-.4-.4-.6,0,.2,0,.4,0,.6.2,0,.4.1.4.1-.1.1-.3.1-.5.1,0,0,0,0,0,0,0,0,0,0,0,0-.3,0-.7,0-1-.2.2.2.4.5.6.7,0,.1.2.2.3.4.1.2.2.3.4.5.1.1.2.3.3.4.2.1.4.2.4.3.2.2.8.3.8.3-.1.1-.4.2-.7.2.1.2.2.3.4.5.3.4.6.8.9,1.2.2.2.3.5.5.7.2-.5.4-1,.5-1.5-.3-.4-.6-.8-.8-1.2-.2-.2-.3-.4-.5-.7Z"/>
  <path class="st2" d="M62.6,90.9c-.2-.2-.3-.4-.5-.5-.1-.2-.3-.3-.4-.4l-5.1-4.9v8.4h1.2v-5.6c.1.2.2.3.4.5.1.1.3.3.4.4l5.2,5v-8.4h-1.2v5.6Z"/>
  <polygon class="st2" points="50.6 93.3 55.1 93.3 55.1 92.2 51.9 92.2 51.9 89.6 55.1 89.6 55.1 88.4 51.9 88.4 51.9 86.4 55.1 86.4 55.1 85.3 50.6 85.3 50.6 93.3"/>
  <path class="st2" d="M48.5,39.6c-1.1,1.1-1.9,1.5-3.5,1.5h-24.6c-1.7,0-2.5-.1-3.4-1.5h-1.5c-.1,3-.4,7.4-.7,11.8h2.2c.8-3,1.5-5,2.6-6,.9-.9,1.8-1.6,7.3-1.6h1.9v27.7c0,5.1-.6,5.4-5.7,5.8v2.1h19.7v-2.1c-5.3-.4-6-.8-6-5.8v-27.7h2.6c3.9,0,5.3.4,6.4,1.4,1,1.1,2,3.2,2.7,6.2h2.2c-.3-3.9-.6-9.2-.7-11.7h-1.4Z"/>
  <path class="st2" d="M124.1,88.8c0,.3,0,.5,0,.5l.9,4h1.2l-1.9-8.4-2.3,5.1c0,0,0,.1,0,.2-.2.4-.3.6-.4.9-.1-.3-.2-.5-.3-.7,0-.2-.1-.3-.2-.4l-2.4-5.1-1.9,8.4h1.2l.9-4c0-.2,0-.4.1-.6,0-.2,0-.4,0-.5,0,.2.1.3.2.5,0,.2.1.3.2.5l2.1,4.4,2.1-4.3c0-.2.2-.4.2-.6,0-.2.1-.4.1-.6,0,.2,0,.3,0,.6"/>
  <path class="st2" d="M92.3,90.9c-.2-.2-.3-.4-.5-.5-.1-.2-.3-.3-.4-.4l-5.1-4.9v8.4h1.2v-5.6c.1.2.2.3.4.5.1.1.3.3.4.4l5.2,5v-8.4h-1.2v5.6Z"/>
  <path class="st2" d="M77.7,93.3l-1.9-8.3-2.3,5.1c0,0,0,.1,0,.2-.2.4-.3.6-.4.9-.1-.3-.2-.5-.3-.7,0-.2-.1-.3-.2-.4l-2.4-5.1-1.9,8.4h1.2l.9-4c0-.2,0-.4.1-.6,0-.2,0-.4,0-.5,0,.2.1.3.2.5,0,.2.1.3.2.5l2.1,4.4,2.1-4.3c0-.2.2-.4.2-.6,0-.2.1-.4.1-.6,0,.2,0,.3,0,.6,0,.3,0,.5,0,.5l.9,4h2.5l.9-2.1h3.2l.9,2.1h1.4l-3.9-8.4-3.9,8.3ZM81.8,87.9c0,.2.1.3.1.4l.8,1.8h-2.2l.8-1.8c0-.1.1-.3.1-.4,0-.2,0-.3.1-.5,0,.2.1.4.2.5Z"/>
  <path class="st2" d="M107.1,89.2v1.1h1.9c0,.7-.2,1.2-.6,1.5-.4.3-1,.5-1.8.5s-1.6-.3-2.1-.9c-.6-.6-.8-1.3-.8-2.2s.3-1.6.8-2.2c.6-.6,1.3-.8,2.1-.8s.8,0,1.1.2c.3.2.6.4.9.7l1-.7c-.4-.5-.8-.8-1.3-1.1-.5-.2-1.1-.3-1.7-.3s-1.2.1-1.7.3c-.5.2-1,.5-1.4.9-.4.4-.7.8-.9,1.4-.2.5-.3,1.1-.3,1.7s.1,1.2.3,1.7c.2.5.5,1,.9,1.4.4.4.8.7,1.4.9.5.2,1.1.3,1.8.3,1.2,0,2.1-.3,2.7-.9.6-.6,1-1.5,1-2.6s0-.3,0-.5c0-.1,0-.2,0-.2h-3.2Z"/>
  <path class="st2" d="M40.1,89c.3-.4.5-.9.5-1.5s0-.7-.2-1c-.1-.3-.3-.6-.6-.8-.2-.2-.5-.3-.8-.3-.3,0-.7-.1-1.2-.1h-1.8v8.1h1.2v-3.6h.1l2.7,3.6h1.5l-2.8-3.7c.6,0,1.1-.3,1.4-.7M37.3,88.7v-2.3h.2c.7,0,1.1,0,1.4.3.2.2.4.5.4.9s-.1.7-.3.9c-.2.2-.7.2-1.4.2h-.2Z"/>
  <path class="st2" d="M67.6,71.4v-22.5c0-5,.5-5.4,5-5.8v-2.1h-18.1v2.1c4.5.4,5.1.8,5.1,5.8v22.5c0,5.1-.6,5.4-5.1,5.8v2.1h18.1v-2.1c-4.5-.4-5-.8-5-5.8"/>
  <path class="st2" d="M47.7,86c-.4-.3-.8-.5-1.2-.6-.5-.1-1.3-.2-2.4-.2h-1.8v8.1h2.1c1,0,1.7,0,2.1-.2.5-.1.9-.3,1.2-.6.5-.4.8-.8,1.1-1.4.2-.6.4-1.2.4-1.9s-.1-1.4-.4-1.9c-.2-.6-.6-1-1.1-1.4M47.5,90.7c-.2.4-.4.7-.7,1-.2.2-.5.3-.8.4-.3,0-.8.1-1.4.1h-1.1v-5.7h.9c.7,0,1.2,0,1.5.1.3,0,.6.2.8.4.3.3.5.6.7,1,.2.4.2.8.2,1.4s0,1-.2,1.4Z"/>
  <path class="st2" d="M27.1,89.2h-3.2v1.1h1.9c0,.7-.2,1.2-.6,1.5-.4.3-1,.5-1.8.5s-1.6-.3-2.1-.9c-.6-.6-.8-1.3-.8-2.2s.3-1.6.8-2.2c.6-.6,1.3-.8,2.1-.8s.8,0,1.1.2c.3.2.6.4.9.7l1-.7c-.4-.5-.8-.8-1.3-1.1-.5-.2-1.1-.3-1.7-.3s-1.2.1-1.7.3c-.5.2-1,.5-1.4.9-.4.4-.7.8-.9,1.4-.2.5-.3,1.1-.3,1.7s.1,1.2.3,1.7c.2.5.5,1,.9,1.4.4.4.8.7,1.4.9.5.2,1.1.3,1.8.3,1.2,0,2.1-.3,2.7-.9.6-.6,1-1.5,1-2.6s0-.3,0-.5c0-.1,0-.2,0-.2"/>
  <path class="st2" d="M27.4,93.3h1.4l.9-2.1h3.2l.9,2.1h1.4l-3.9-8.4-3.9,8.4ZM31.5,87.9c0,.2.1.3.1.4l.8,1.8h-2.2l.8-1.8c0-.1.1-.3.2-.4,0-.2,0-.3.1-.5,0,.2.1.4.2.5Z"/>
  <path class="st2" d="M90.2,71.4v-8l4.2,1c.6,0,1.6,0,2.6-.1,6.2-.8,12.1-4.3,12.1-12.2s-1.6-6.7-4.3-8.6c-2.3-1.6-5.8-2.3-10.5-2.3h-16.7v2.1c4.2.4,4.8.8,4.8,5.8v22.4c0,5.1-.6,5.4-5.2,5.8v2.1h18.8v-2.1c-5.2-.4-5.8-.8-5.8-5.8M90.2,45.8c0-.9.2-1.5.5-1.8.4-.3,1.1-.6,2.3-.6,3.7,0,7.6,2.2,7.6,8.7s-4.7,9.5-7,9.5-2.6-.3-3.3-.6v-15.2Z"/>
  <polygon class="st2" points="141.6 85.3 141.6 86.4 143.7 86.4 143.7 93.3 145 93.3 145 86.4 147.2 86.4 147.2 85.3 141.6 85.3"/>
  <path class="st2" d="M149.3,61.1v-6.4c0-4,.2-6.2.5-8,.3-2.1,1.9-3.4,5.1-3.6v-2.1h-15.2v2.1c4.1.2,5.5,1.5,5.8,3.5.4,1.8.6,4,.6,8v6c0,9.9-3.1,15.5-10.6,15.5s-9.9-5.5-9.9-14.3v-12.2c0-5.7.6-6.1,5.2-6.5v-2.1h-18.3v2.1c4.5.4,5.1.8,5.1,6.5v13.5c0,6.9,1.7,11.4,5.2,14,2.9,2.1,6.7,3,10.7,3s8.4-1.5,11.2-4.3c3.5-3.5,4.5-8.4,4.5-14.8"/>
  <polygon class="st2" points="131.9 93.3 131.9 92.2 128.7 92.2 128.7 89.6 131.9 89.6 131.9 88.4 128.7 88.4 128.7 86.4 131.9 86.4 131.9 85.3 127.4 85.3 127.4 93.3 131.9 93.3"/>
  <path class="st2" d="M139.4,90.9c-.2-.2-.3-.4-.5-.5-.1-.2-.3-.3-.4-.4l-5.1-4.9v8.4h1.2v-5.6c.1.2.2.3.4.5.1.1.3.3.4.4l5.2,5v-8.4h-1.2v5.6Z"/>
  <path class="st2" d="M102,93.3l-3.9-8.4-3.9,8.4h1.4l.9-2.1h3.2l.9,2.1h1.4ZM97,90.2l.8-1.8c0-.1.1-.3.2-.4,0-.2,0-.3.1-.5,0,.2.1.4.2.5,0,.2.1.3.1.4l.8,1.8h-2.2Z"/>
  <polygon class="st2" points="116.1 92.2 113 92.2 113 89.6 116.1 89.6 116.1 88.4 113 88.4 113 86.4 116.1 86.4 116.1 85.3 111.6 85.3 111.6 93.3 116.1 93.3 116.1 92.2"/>
  <path class="st2" d="M48,104.7h-1l.8-6.1h1.3c.5,0,.8,0,1.1,0,.2,0,.4.2.6.3.2.1.3.3.4.5,0,.2.1.5.1.7s0,.6-.2.8c-.1.2-.3.5-.5.6-.2.1-.4.2-.6.3-.2,0-.6,0-1.2,0h-.5l-.3,2.6ZM48.4,101.2h.3c.6,0,1,0,1.2-.2.2-.1.3-.4.3-.7s0-.5-.3-.6c-.2-.1-.5-.2-1.1-.2h-.3l-.2,1.8Z"/>
  <polygon class="st2" points="52.6 104.7 51.7 104.7 52.5 98.2 53.4 98.2 52.6 104.7"/>
  <path class="st2" d="M57.5,104.7h-.9v-.4c0,.2-.3.3-.5.4-.2,0-.4.1-.7.1-.5,0-.9-.2-1.2-.5-.3-.3-.4-.8-.4-1.4s.2-1.3.5-1.7c.3-.4.8-.7,1.4-.7s.5,0,.7.2c.2.1.4.3.6.5v-.5h1l-.5,4ZM54.8,102.8c0,.4,0,.7.3.9.2.2.4.3.7.3s.6-.1.9-.4c.2-.3.3-.7.3-1.2s0-.6-.3-.8c-.2-.2-.4-.3-.8-.3s-.6.1-.8.4c-.2.3-.3.7-.3,1.1Z"/>
  <path class="st2" d="M61.6,104.7l.3-2.3s0,0,0-.1c0,0,0-.1,0-.2,0-.3,0-.5-.2-.6-.1-.1-.3-.2-.5-.2-.4,0-.7.1-.9.4-.2.2-.4.6-.4,1.1l-.3,1.9h-.9l.5-4h.9v.5c.2-.2.4-.4.6-.5.2-.1.5-.2.8-.2.4,0,.7.1,1,.3.2.2.3.5.3.9s0,.2,0,.3c0,.1,0,.3,0,.5l-.3,2.1h-.9Z"/>
  <polygon class="st2" points="63.8 104.7 64.2 101.5 63.5 101.5 63.6 100.7 64.3 100.7 64.5 99.2 65.4 99.2 65.2 100.7 65.9 100.7 65.8 101.5 65.1 101.5 64.7 104.7 63.8 104.7"/>
  <path class="st2" d="M66.4,104.2c0-.2,0-.3.2-.4.1-.1.2-.2.4-.2s.3,0,.4.2c.1.1.2.2.2.4s0,.3-.2.4c-.1.1-.2.2-.4.2s-.3,0-.4-.2c-.1-.1-.2-.2-.2-.4"/>
  <path class="st2" d="M76.9,100.3c-.3-.3-.6-.6-.9-.8-.3-.2-.7-.3-1.1-.3s-.6,0-.9.2c-.3.1-.5.3-.8.5-.2.3-.4.5-.6.9-.1.3-.2.7-.2,1,0,.6.2,1.2.6,1.6.4.4.9.6,1.6.6s.9-.1,1.3-.4c.3-.3.6-.7.6-1.1h-1.6v-.9h2.7c0,1-.3,1.8-.8,2.4-.6.6-1.3.9-2.3.9s-1.7-.3-2.2-.8c-.6-.5-.8-1.3-.8-2.2s0-1,.3-1.4c.2-.4.4-.8.8-1.1.3-.3.7-.5,1.1-.7.4-.2.9-.2,1.3-.2s1.1,0,1.5.3c.4.2.8.5,1.2,1l-.7.6Z"/>
  <path class="st2" d="M80.9,101.5c0,0-.1,0-.2-.1,0,0-.1,0-.2,0-.3,0-.6.1-.8.4-.2.2-.3.6-.4,1.1l-.3,1.9h-.9l.5-4h.9v.5c0-.2.3-.4.4-.5.2-.1.4-.2.6-.2s.2,0,.3,0c0,0,.2,0,.3.1l-.3.8Z"/>
  <path class="st2" d="M83.5,100.6c.6,0,1.1.2,1.5.5.4.4.6.8.6,1.4s-.2,1.2-.6,1.6c-.4.4-1,.6-1.7.6s-1.1-.2-1.5-.5c-.4-.4-.5-.8-.5-1.4s.2-1.2.6-1.7c.4-.4,1-.7,1.6-.7M83.5,101.4c-.4,0-.7.1-1,.4-.3.3-.4.7-.4,1.1s0,.6.3.8c.2.2.4.3.8.3s.7-.1,1-.4c.2-.3.4-.6.4-1.1s0-.7-.3-.9c-.2-.2-.5-.3-.8-.3Z"/>
  <path class="st2" d="M86,100.7h.9l.6,2h0c0,.3.1.5.1.6,0,0,0-.2.1-.3,0-.1.1-.2.2-.3l1.3-2.3.6,2.3c0,0,0,.2,0,.3,0,0,0,.2,0,.3,0-.1,0-.2.1-.3,0,0,0-.2.1-.3l1.2-2.1h1l-2.7,4.2-.7-2.2c0,0,0-.2,0-.3,0,0,0-.2,0-.3,0,.1-.1.2-.2.3,0,0,0,.2-.1.2l-1.3,2.2-1.5-4.2Z"/>
  <path class="st2" d="M92.2,104.2c0-.2,0-.3.2-.4.1-.1.2-.2.4-.2s.3,0,.4.2c.1.1.2.2.2.4s0,.3-.2.4c-.1.1-.2.2-.4.2s-.3,0-.4-.2c-.1-.1-.2-.2-.2-.4"/>
  <polygon class="st2" points="97.2 104.7 98 98.6 101.4 98.6 101.3 99.4 98.8 99.4 98.7 101 101.1 101 101 101.8 98.5 101.8 98.3 103.8 100.8 103.8 100.6 104.7 97.2 104.7"/>
  <path class="st2" d="M103,104.9l-1.5-4.2h.9l.6,1.9c0,.1,0,.2,0,.3,0,.1,0,.2,0,.4,0-.1,0-.2.1-.3,0-.1.1-.2.2-.3l1.1-2h1l-2.6,4.2Z"/>
  <path class="st2" d="M108,100.6c.6,0,1.1.2,1.5.5.4.4.6.8.6,1.4s-.2,1.2-.6,1.6c-.4.4-1,.6-1.7.6s-1.1-.2-1.5-.5c-.4-.4-.5-.8-.5-1.4s.2-1.2.6-1.7c.4-.4,1-.7,1.6-.7M108,101.4c-.4,0-.7.1-1,.4-.3.3-.4.7-.4,1.1s0,.6.3.8c.2.2.4.3.8.3s.7-.1,1-.4c.2-.3.4-.6.4-1.1s0-.7-.3-.9c-.2-.2-.5-.3-.8-.3Z"/>
  <polygon class="st2" points="111.6 104.7 110.7 104.7 111.6 98.2 112.5 98.2 111.6 104.7"/>
  <path class="st2" d="M114.1,104.9l-1.5-4.2h.9l.6,1.9c0,.1,0,.2,0,.3,0,.1,0,.2,0,.4,0-.1,0-.2.1-.3,0-.1.1-.2.2-.3l1.1-2h1l-2.6,4.2Z"/>
  <path class="st2" d="M119.8,103.5l.6.5c-.2.3-.5.5-.8.7-.3.1-.6.2-.9.2-.6,0-1.1-.2-1.4-.5-.4-.4-.5-.8-.5-1.4s.2-1.2.6-1.7c.4-.4.9-.7,1.6-.7s1,.2,1.3.5c.3.3.5.8.5,1.3s0,.1,0,.2c0,0,0,.2,0,.3h-3c0,.4,0,.6.3.9.2.2.4.3.7.3s.4,0,.6-.2c.2-.1.3-.2.5-.4M117.8,102.2h2c0-.3,0-.5-.2-.6-.2-.2-.4-.2-.6-.2s-.6,0-.8.2c-.2.2-.3.4-.4.6Z"/>
  <path class="st2" d="M121.7,104.2c0-.2,0-.3.2-.4.1-.1.2-.2.4-.2s.3,0,.4.2c.1.1.2.2.2.4s0,.3-.2.4c-.1.1-.2.2-.4.2s-.3,0-.4-.2c-.1-.1-.2-.2-.2-.4"/>
</svg>